<?xml version="1.0" encoding="UTF-8" standalone="no"?>
<svg width="92px" height="59px" viewBox="0 0 92 59" version="1.1" xmlns="http://www.w3.org/2000/svg" xmlns:xlink="http://www.w3.org/1999/xlink">
    <!-- Generator: sketchtool 41.2 (35397) - http://www.bohemiancoding.com/sketch -->
    <title>D0AA335C-C68D-47F1-9150-CE355F8A64BE</title>
    <desc>Created with sketchtool.</desc>
    <defs>
        <polygon id="path-1" points="28.0363811 27.3099 28.0363811 0.1929 0.901367775 0.1929 0.901367775 27.3099"></polygon>
        <path d="M0.309160038,0.353999999 C0.309130077,0.367996484 0.30911509,0.381996489 0.30911509,0.396 C0.30911509,11.007 8.92195141,19.608 19.5434987,19.608 C30.1635448,19.608 38.7778824,11.007 38.7778824,0.396 L38.7358433,0.354 L0.309156812,0.354 L0.309160038,0.353999999 Z" id="path-3"></path>
        <path d="M19.389889,0.6801 C8.83903599,0.76254862 0.30911509,9.33172106 0.30911509,19.896 C0.30911509,19.9107039 0.309131628,19.9254039 0.309164687,19.9401 L38.7778363,19.9401 C38.7778658,19.9254039 38.7778824,19.9107039 38.7778824,19.896 L19.5440993,0.6801 L19.389889,0.6801 L19.389889,0.6801 Z" id="path-5"></path>
        <polygon id="path-7" points="0 58.5 91.0900895 58.5 91.0900895 0.6795 0 0.6795"></polygon>
    </defs>
    <g id="COMPONENTS-&amp;-ASSETS" stroke="none" stroke-width="1" fill="none" fill-rule="evenodd" opacity="0.900000036">
        <g transform="translate(-723.000000, -5496.000000)" id="Page-1">
            <g transform="translate(723.000000, 5495.000000)">
                <g id="Group-10" transform="translate(1.000000, 0.820800)">
                    <path d="M87.7923824,47.8344 L87.041743,47.8344 C87.0822775,47.1294 87.7128146,46.9194 88.3283389,46.9194 C88.8733031,46.9194 89.5293619,47.0409 89.5293619,47.6964 L89.5293619,49.1199 C89.5293619,49.3689 89.5563849,49.6164 89.626945,49.7274 L88.8627941,49.7274 C88.8342698,49.6434 88.8177558,49.5564 88.8087481,49.4634 C88.5685435,49.7124 88.2232494,49.8009 87.8884642,49.8009 C87.3690217,49.8009 86.9561701,49.5414 86.9561701,48.9789 C86.9561701,48.3624 87.4230678,48.2139 87.8884642,48.1524 C88.3493568,48.0834 88.7772212,48.1014 88.7772212,47.7924 C88.7772212,47.4714 88.555032,47.4234 88.2938095,47.4234 C88.0055639,47.4234 87.8209066,47.5374 87.7923824,47.8344 L87.7923824,47.8344 Z M88.7772212,48.6729 L88.7772212,48.3924 C88.6526151,48.5004 88.38839,48.5049 88.151188,48.5499 C87.9214923,48.5979 87.7068095,48.6744 87.7068095,48.9489 C87.7068095,49.2294 87.9244949,49.2969 88.167702,49.2969 C88.7516995,49.2969 88.7772212,48.8349 88.7772212,48.6729 L88.7772212,48.6729 Z M83.8290064,49.7274 L83.8290064,46.9959 L84.5436151,46.9959 L84.5436151,47.3754 C84.7507916,47.0694 85.0810729,46.9194 85.3978427,46.9194 C86.1980243,46.9194 86.3961931,47.3679 86.3961931,48.0459 L86.3961931,49.7274 L85.6455537,49.7274 L85.6455537,48.1854 C85.6455537,47.7339 85.5134412,47.5119 85.1651445,47.5119 C84.7597992,47.5119 84.5811471,47.7399 84.5811471,48.2934 L84.5811471,49.7274 L83.8290064,49.7274 Z M81.1056867,48.3624 C81.1056867,48.7974 81.2603184,49.2369 81.7677506,49.2369 C82.281188,49.2369 82.437321,48.7974 82.437321,48.3624 C82.437321,47.9244 82.281188,47.4864 81.7677506,47.4864 C81.2603184,47.4864 81.1056867,47.9244 81.1056867,48.3624 L81.1056867,48.3624 Z M80.353546,48.3624 C80.353546,47.4879 80.9075179,46.9194 81.7677506,46.9194 C82.6279834,46.9194 83.1879604,47.4879 83.1879604,48.3624 C83.1879604,49.2294 82.6279834,49.8009 81.7677506,49.8009 C80.9075179,49.8009 80.353546,49.2294 80.353546,48.3624 L80.353546,48.3624 Z M79.0204105,49.7274 L79.7710499,49.7274 L79.7710499,45.9519 L79.0204105,45.9519 L79.0204105,49.7274 Z M76.4231982,48.0669 L77.6452391,48.0669 C77.5776816,47.6844 77.4125409,47.4864 77.0477302,47.4864 C76.5718248,47.4864 76.4337072,47.8539 76.4231982,48.0669 L76.4231982,48.0669 Z M78.3973798,48.5454 L76.4231982,48.5454 C76.4427148,49.0194 76.6769143,49.2369 77.0972724,49.2369 C77.3975281,49.2369 77.639234,49.0494 77.6887762,48.8799 L78.3538427,48.8799 C78.1331547,49.5264 77.6887762,49.8009 77.0687481,49.8009 C76.2100166,49.8009 75.6755614,49.2099 75.6755614,48.3624 C75.6755614,47.5479 76.2355384,46.9194 77.0687481,46.9194 C78.0010422,46.9194 78.4514258,47.7024 78.3973798,48.5454 L78.3973798,48.5454 Z M75.1531164,47.9559 L74.4174898,47.9559 C74.3724514,47.6499 74.1772852,47.4864 73.8635179,47.4864 C73.3816074,47.4864 73.2209706,47.9724 73.2209706,48.3714 C73.2209706,48.7644 73.3771036,49.2369 73.8455026,49.2369 C74.1953005,49.2369 74.3964719,49.0149 74.4445128,48.6804 L75.1666279,48.6804 C75.0735486,49.4049 74.5691189,49.8009 73.8515077,49.8009 C73.0243031,49.8009 72.4703312,49.2174 72.4703312,48.3984 C72.4703312,47.5479 72.980766,46.9194 73.8680217,46.9194 C74.5135716,46.9194 75.108078,47.2614 75.1531164,47.9559 L75.1531164,47.9559 Z M70.3985665,49.7274 L70.3985665,46.9959 L71.1161777,46.9959 L71.1161777,47.4999 C71.2633031,47.1594 71.6356202,46.9194 72.0004309,46.9194 C72.0499731,46.9194 72.1145281,46.9314 72.1625691,46.9479 L72.1625691,47.6424 C72.092009,47.6259 71.9854182,47.6154 71.8923389,47.6154 C71.3428708,47.6154 71.1507072,48.0129 71.1507072,48.4944 L71.1507072,49.7274 L70.3985665,49.7274 Z M67.9274616,47.8344 L67.175321,47.8344 C67.2143542,47.1294 67.8463926,46.9194 68.4589143,46.9194 C69.0023772,46.9194 69.6644412,47.0409 69.6644412,47.6964 L69.6644412,49.1199 C69.6644412,49.3689 69.6884616,49.6164 69.7575205,49.7274 L68.9948708,49.7274 C68.9663465,49.6434 68.9483312,49.5564 68.9408248,49.4634 C68.7006202,49.7124 68.3538248,49.8009 68.0205409,49.8009 C67.4995972,49.8009 67.0882468,49.5414 67.0882468,48.9789 C67.0882468,48.3624 67.5551445,48.2139 68.0205409,48.1524 C68.4799322,48.0834 68.9123005,48.1014 68.9123005,47.7924 C68.9123005,47.4714 68.68861,47.4234 68.4228836,47.4234 C68.1361394,47.4234 67.9499808,47.5374 67.9274616,47.8344 L67.9274616,47.8344 Z M68.9123005,48.6729 L68.9123005,48.3924 C68.7831905,48.5004 68.5189655,48.5049 68.2832647,48.5499 C68.0520678,48.5979 67.8403875,48.6744 67.8403875,48.9489 C67.8403875,49.2294 68.0580729,49.2969 68.3012801,49.2969 C68.8882801,49.2969 68.9123005,48.8349 68.9123005,48.6729 L68.9123005,48.6729 Z M64.2283107,46.5969 L64.2283107,47.4819 L65.0690269,47.4819 C65.3617762,47.4819 65.5794616,47.3469 65.5794616,47.0319 C65.5794616,46.6704 65.3017251,46.5969 65.0074744,46.5969 L64.2283107,46.5969 Z M63.3966023,49.7274 L63.3966023,45.9519 L65.1741164,45.9519 C65.8947302,45.9519 66.3811445,46.1859 66.3811445,46.8879 C66.3811445,47.2614 66.1964872,47.5179 65.8692084,47.6769 C66.3285997,47.8089 66.561298,48.1659 66.561298,48.6324 C66.561298,49.4004 65.9142468,49.7274 65.2296637,49.7274 L63.3966023,49.7274 Z M64.2283107,48.0459 L64.2283107,49.0809 L65.1185691,49.0809 C65.4443465,49.0809 65.7310908,48.9774 65.7310908,48.5844 C65.7310908,48.1974 65.4908862,48.0459 65.1350831,48.0459 L64.2283107,48.0459 Z M87.5701931,42.7164 C87.5701931,43.1499 87.7248248,43.5924 88.232257,43.5924 C88.7441931,43.5924 88.8988248,43.1499 88.8988248,42.7164 C88.8988248,42.2769 88.7441931,41.8359 88.232257,41.8359 C87.7248248,41.8359 87.5701931,42.2769 87.5701931,42.7164 L87.5701931,42.7164 Z M86.8165512,42.7164 C86.8165512,41.8449 87.3750269,41.2719 88.232257,41.2719 C89.093991,41.2719 89.6509655,41.8449 89.6509655,42.7164 C89.6509655,43.5834 89.093991,44.1564 88.232257,44.1564 C87.3750269,44.1564 86.8165512,43.5834 86.8165512,42.7164 L86.8165512,42.7164 Z M89.1735588,40.2579 L88.361367,41.0079 L87.8344182,41.0079 L88.3418504,40.2579 L89.1735588,40.2579 Z M85.2552212,40.9224 L86.0043593,40.9224 L86.0043593,40.3044 L85.2552212,40.3044 L85.2552212,40.9224 Z M85.2552212,44.0829 L86.0043593,44.0829 L86.0043593,41.3499 L85.2552212,41.3499 L85.2552212,44.0829 Z M84.4445307,42.3084 L83.7134079,42.3084 C83.6623645,42.0024 83.4626944,41.8359 83.1549322,41.8359 C82.6685179,41.8359 82.5108836,42.3264 82.5108836,42.7299 C82.5108836,43.1184 82.6685179,43.5924 83.1384182,43.5924 C83.4882161,43.5924 83.6893875,43.3674 83.7389297,43.0344 L84.462546,43.0344 C84.3664642,43.7589 83.8635358,44.1564 83.1414207,44.1564 C82.3187199,44.1564 81.758743,43.5729 81.758743,42.7524 C81.758743,41.9034 82.270679,41.2719 83.1609373,41.2719 C83.8004821,41.2719 84.3994923,41.6094 84.4445307,42.3084 L84.4445307,42.3084 Z M79.2335921,42.1869 L78.4829527,42.1869 C78.5234872,41.4819 79.1555256,41.2719 79.7695486,41.2719 C80.3145128,41.2719 80.9705716,41.3934 80.9705716,42.0489 L80.9705716,43.4724 C80.9705716,43.7214 80.9975946,43.9719 81.0666535,44.0814 L80.3040038,44.0814 C80.2754795,43.9974 80.2559629,43.9089 80.2514591,43.8159 C80.014257,44.0634 79.6644591,44.1564 79.3296739,44.1564 C78.8117327,44.1564 78.3973798,43.8954 78.3973798,43.3359 C78.3973798,42.7164 78.8642775,42.5679 79.3296739,42.5034 C79.7890652,42.4389 80.2184309,42.4509 80.2184309,42.1479 C80.2184309,41.8239 79.9992442,41.7759 79.7320166,41.7759 C79.4437711,41.7759 79.2591138,41.8914 79.2335921,42.1869 L79.2335921,42.1869 Z M80.2184309,43.0239 L80.2184309,42.7449 C80.089321,42.8529 79.8250959,42.8559 79.593899,42.9024 C79.3642033,42.9504 79.1495205,43.0284 79.1495205,43.3044 C79.1495205,43.5834 79.3672059,43.6524 79.6089118,43.6524 C80.1989143,43.6524 80.2184309,43.1844 80.2184309,43.0239 L80.2184309,43.0239 Z M77.2173747,40.5279 L77.2173747,41.3499 L77.7668427,41.3499 L77.7668427,41.8509 L77.2173747,41.8509 L77.2173747,43.2024 C77.2173747,43.4574 77.2774258,43.5204 77.5356458,43.5204 C77.6152136,43.5204 77.6872749,43.5129 77.7668427,43.4994 L77.7668427,44.0874 C77.639234,44.1084 77.4740934,44.1129 77.326968,44.1129 C76.8645742,44.1129 76.465234,44.0079 76.465234,43.4604 L76.465234,41.8509 L76.0058427,41.8509 L76.0058427,41.3499 L76.465234,41.3499 L76.465234,40.5279 L77.2173747,40.5279 Z M75.3963235,41.3499 L75.3963235,44.0814 L74.6832161,44.0814 L74.6832161,43.7019 C74.4805435,44.0079 74.1517634,44.1564 73.8304898,44.1564 C73.0318095,44.1564 72.8321394,43.7049 72.8321394,43.0284 L72.8321394,41.3499 L73.5812775,41.3499 L73.5812775,42.8904 C73.5812775,43.3374 73.71339,43.5654 74.0646893,43.5654 C74.4715358,43.5654 74.6456841,43.3359 74.6456841,42.7824 L74.6456841,41.3499 L75.3963235,41.3499 Z M70.6297634,43.5924 C71.1251854,43.5924 71.2828197,43.1679 71.2828197,42.7209 C71.2828197,42.2859 71.1056688,41.8359 70.6252596,41.8359 C70.1328402,41.8359 69.9722033,42.2769 69.9722033,42.7209 C69.9722033,43.1679 70.1418478,43.5924 70.6297634,43.5924 L70.6297634,43.5924 Z M69.248587,45.0444 L69.248587,41.3499 L69.9661982,41.3499 L69.9661982,41.6994 C70.1553593,41.4024 70.4526125,41.2719 70.7904003,41.2719 C71.6476304,41.2719 72.0349604,41.9649 72.0349604,42.7449 C72.0349604,43.4724 71.6326176,44.1564 70.8324361,44.1564 C70.5051573,44.1564 70.1928913,44.0139 70.0097353,43.7454 L70.0037302,45.0444 L69.248587,45.0444 Z M67.5731598,40.9224 L68.3237992,40.9224 L68.3237992,40.3044 L67.5731598,40.3044 L67.5731598,40.9224 Z M67.5731598,44.0829 L68.3237992,44.0829 L68.3237992,41.3499 L67.5731598,41.3499 L67.5731598,44.0829 Z M64.2238069,41.0019 L64.2238069,43.3854 L64.9639373,43.3854 C65.4473491,43.3854 65.9067404,43.0884 65.9067404,42.2529 C65.9067404,41.4879 65.6410141,41.0019 64.8183133,41.0019 L64.2238069,41.0019 Z M63.3920985,44.0814 L63.3920985,40.3059 L65.0224872,40.3059 C66.0028223,40.3059 66.7399501,40.9209 66.7399501,42.1719 C66.7399501,43.2699 66.1769706,44.0814 65.0224872,44.0814 L63.3920985,44.0814 Z" id="Fill-1" fill="#FFFFFF"></path>
                    <path d="M51.2162772,58.5 L51.2162772,3.1425" id="Stroke-3" stroke="#FFFFFF" stroke-width="1.125"></path>
                    <g id="Group-7" transform="translate(62.053708, 10.500000)">
                        <mask id="mask-2" fill="white">
                            <use xlink:href="#path-1"></use>
                        </mask>
                        <g id="Clip-6"></g>
                        <path d="M7.90032941,16.3044 L14.4699253,22.8699 L21.0440251,16.3044 L14.4699253,9.7434 L7.90032941,16.3044 Z M19.0218026,15.3594 L19.972112,16.3014 L19.0218026,17.2554 L15.4157309,17.2554 L15.4157309,20.8599 L14.4654215,21.8109 L13.5241197,20.8599 L13.5241197,17.2554 L9.91354425,17.2554 L8.96773862,16.3014 L9.91354425,15.3594 L13.5241197,15.3594 L13.5241197,11.7429 L14.4654215,10.7964 L15.4157309,11.7429 L15.4157309,15.3594 L19.0218026,15.3594 Z M14.4699253,0.1929 C6.97554169,0.1929 0.901367775,6.2634 0.901367775,13.7484 C0.901367775,21.2364 6.97554169,27.3099 14.4699253,27.3099 C21.9628077,27.3099 28.0369816,21.2364 28.0369816,13.7484 C28.0369816,6.2634 21.9628077,0.1929 14.4699253,0.1929 L14.4699253,0.1929 Z M20.5380941,3.4284 C20.8563652,3.4284 21.1070788,3.6804 21.1070788,3.9969 C21.1070788,4.3089 20.8563652,4.5639 20.5380941,4.5639 C20.2228256,4.5639 19.9676082,4.3089 19.9676082,3.9969 C19.9676082,3.6804 20.2228256,3.4284 20.5380941,3.4284 L20.5380941,3.4284 Z M19.7814496,4.7499 C20.0952169,4.7499 20.348933,5.0079 20.348933,5.3184 C20.348933,5.6364 20.0952169,5.8869 19.7814496,5.8869 C19.4661811,5.8869 19.2109637,5.6364 19.2109637,5.3184 C19.2109637,5.0079 19.4661811,4.7499 19.7814496,4.7499 L19.7814496,4.7499 Z M8.97074118,7.2084 L19.9691095,7.2084 L19.9691095,6.4524 L8.97074118,6.4524 L8.97074118,7.2084 Z M8.97074118,8.1579 L19.9345801,8.1579 L19.9345801,7.7739 L8.97074118,7.7739 L8.97074118,8.1579 Z M18.8281376,5.3184 C18.8281376,5.6364 18.5744215,5.8869 18.2621555,5.8869 C17.9453857,5.8869 17.6916696,5.6364 17.6916696,5.3184 C17.6916696,5.0079 17.9453857,4.7499 18.2621555,4.7499 C18.5744215,4.7499 18.8281376,5.0079 18.8281376,5.3184 L18.8281376,5.3184 Z M17.5070123,3.4284 C17.8237821,3.4284 18.0774982,3.6804 18.0774982,3.9969 C18.0774982,4.3089 17.8237821,4.5639 17.5070123,4.5639 C17.193245,4.5639 16.9365263,4.3089 16.9365263,3.9969 C16.9365263,3.6804 17.193245,3.4284 17.5070123,3.4284 L17.5070123,3.4284 Z M16.7503678,4.7499 C17.0656363,4.7499 17.3253575,5.0079 17.3253575,5.3184 C17.3253575,5.6364 17.0656363,5.8869 16.7503678,5.8869 C16.4366005,5.8869 16.1828844,5.6364 16.1828844,5.3184 C16.1828844,5.0079 16.4366005,4.7499 16.7503678,4.7499 L16.7503678,4.7499 Z M15.8060634,5.3184 C15.8060634,5.6364 15.5463422,5.8869 15.2310737,5.8869 C14.9188077,5.8869 14.662089,5.6364 14.662089,5.3184 C14.662089,5.0079 14.9188077,4.7499 15.2310737,4.7499 C15.5463422,4.7499 15.8060634,5.0079 15.8060634,5.3184 L15.8060634,5.3184 Z M14.4699253,3.4284 C14.7866951,3.4284 15.0404113,3.6804 15.0404113,3.9969 C15.0404113,4.3089 14.7866951,4.5639 14.4699253,4.5639 C14.1576593,4.5639 13.9024419,4.3089 13.9024419,3.9969 C13.9024419,3.6804 14.1576593,3.4284 14.4699253,3.4284 L14.4699253,3.4284 Z M13.708777,4.7499 C14.021043,4.7499 14.2777616,5.0079 14.2777616,5.3184 C14.2777616,5.6364 14.021043,5.8869 13.708777,5.8869 C13.3950097,5.8869 13.1397923,5.6364 13.1397923,5.3184 C13.1397923,5.0079 13.3950097,4.7499 13.708777,4.7499 L13.708777,4.7499 Z M12.7569662,5.3184 C12.7569662,5.6364 12.5047514,5.8869 12.1879816,5.8869 C11.872713,5.8869 11.6174957,5.6364 11.6174957,5.3184 C11.6174957,5.0079 11.872713,4.7499 12.1879816,4.7499 C12.5047514,4.7499 12.7569662,5.0079 12.7569662,5.3184 L12.7569662,5.3184 Z M11.4358409,3.4284 C11.7481069,3.4284 12.0048256,3.6804 12.0048256,3.9969 C12.0048256,4.3089 11.7481069,4.5639 11.4358409,4.5639 C11.1235749,4.5639 10.8638537,4.3089 10.8638537,3.9969 C10.8638537,3.6804 11.1235749,3.4284 11.4358409,3.4284 L11.4358409,3.4284 Z M10.6761939,4.7499 C10.994465,4.7499 11.2496824,5.0079 11.2496824,5.3184 C11.2496824,5.6364 10.994465,5.8869 10.6761939,5.8869 C10.3654292,5.8869 10.1072092,5.6364 10.1072092,5.3184 C10.1072092,5.0079 10.3654292,4.7499 10.6761939,4.7499 L10.6761939,4.7499 Z M9.72888696,5.3184 C9.72888696,5.6364 9.47667212,5.8869 9.15689974,5.8869 C8.84313248,5.8869 8.59241893,5.6364 8.59241893,5.3184 C8.59241893,5.0079 8.84313248,4.7499 9.15689974,4.7499 C9.47667212,4.7499 9.72888696,5.0079 9.72888696,5.3184 L9.72888696,5.3184 Z M8.39875396,3.4284 C8.71702506,3.4284 8.96773862,3.6804 8.96773862,3.9969 C8.96773862,4.3089 8.71702506,4.5639 8.39875396,4.5639 C8.08648798,4.5639 7.82826803,4.3089 7.82826803,3.9969 C7.82826803,3.6804 8.08648798,3.4284 8.39875396,3.4284 L8.39875396,3.4284 Z M20.9164164,17.2584 L20.9164164,24.0759 L19.212465,24.0759 L19.212465,18.9609 L17.8838332,20.2899 L17.8838332,24.0759 L16.1768793,24.0759 L16.1768793,21.9939 L14.4699253,23.6979 L12.7614701,21.9849 L12.7614701,24.0759 L11.0545161,24.0759 L11.0545161,20.2839 L9.7258844,18.9534 L9.7258844,24.0759 L8.01742916,24.0759 L8.01742916,17.2554 L7.07162353,16.3044 L8.01742916,15.3594 L8.01742916,8.9154 L9.7258844,8.9154 L9.7258844,13.6554 L11.0545161,12.3234 L11.0545161,8.9154 L12.7569662,8.9154 L12.7569662,10.6224 L14.4654215,8.9154 L16.1768793,10.6209 L16.1768793,8.9154 L17.8808307,8.9154 L17.8808307,12.3219 L19.212465,13.6524 L19.212465,8.9154 L20.9164164,8.9154 L20.9164164,15.3579 L21.8697284,16.3044 L20.9164164,17.2584 Z" id="Fill-5" fill="#FFFFFF" mask="url(#mask-2)"></path>
                    </g>
                    <path d="M19.5442494,0.6801 C30.1627941,0.6801 38.7771317,9.2811 38.7771317,19.8951 C38.7771317,30.5061 30.1627941,39.1086 19.5442494,39.1086 C8.92270205,39.1086 0.309865729,30.5061 0.309865729,19.8951 C0.309865729,9.2811 8.92270205,0.6801 19.5442494,0.6801" id="Fill-8" fill="#FFFFFF"></path>
                </g>
                <g id="Group-17" transform="translate(1.000000, 0.820800)">
                    <g id="Group-13" transform="translate(0.000000, 19.500000)">
                        <mask id="mask-4" fill="white">
                            <use xlink:href="#path-3"></use>
                        </mask>
                        <g id="Clip-12"></g>
                        <path d="M19.5398957,16.4715 C9.49634066,16.4715 1.11620256,9.39 0.249964706,0.354 C0.203425064,0.873 0.310015857,1.395 0.310015857,1.923 C0.310015857,11.694 8.92285217,19.6095 19.5398957,19.6095 C30.1629442,19.6095 38.7772818,11.694 38.7772818,1.923 C38.7772818,1.395 38.9169008,0.933 38.8613535,0.411 C38.0011207,9.4485 29.5924583,16.4715 19.5398957,16.4715" id="Fill-11" fill="#E3E1E1" mask="url(#mask-4)"></path>
                    </g>
                    <g id="Group-16">
                        <mask id="mask-6" fill="white">
                            <use xlink:href="#path-5"></use>
                        </mask>
                        <g id="Clip-15"></g>
                        <path d="M19.5311882,3.8211 C29.654311,3.8211 37.9683928,10.9056 38.8331294,19.9401 C38.8856742,19.4211 38.9141985,18.8961 38.9141985,18.3666 C38.9141985,8.5986 30.2338046,0.6801 19.5311882,0.6801 C8.82707059,0.6801 0.145175448,8.5986 0.145175448,18.3666 C0.145175448,18.8961 0.179704859,19.4211 0.224743223,19.9401 C1.09548491,10.9056 9.40206036,3.8211 19.5311882,3.8211" id="Fill-14" fill="#B6B5B4" mask="url(#mask-6)"></path>
                    </g>
                </g>
                <g id="Group-46" transform="translate(0.000000, 0.820800)">
                    <path d="M37.5083992,20.37855 C37.4408417,20.29755 37.3342509,20.37855 37.2847087,20.48655 L37.4558545,20.57055 L37.3702816,20.65155 L37.4408417,20.77905 L37.2967189,20.76105 L37.3342509,20.65155 L37.1405859,20.61405 C37.1781179,20.29755 36.8928749,20.25255 36.9454197,20.57055 L36.9108903,20.57055 L36.8928749,20.40105 C36.7337394,20.40105 36.6271486,20.42205 36.6646806,20.65155 L36.9799491,20.65155 C36.9799491,20.67255 37.0174811,20.90655 37.1210693,20.82405 L37.1210693,20.86755 L36.9454197,20.86755 L36.8748596,20.77905 C36.8042995,20.80305 36.6811946,20.86755 36.6271486,20.77905 C36.4860284,20.99655 36.2052893,20.77905 36.0266371,20.99655 C35.9755936,20.82405 35.7293839,21.13755 35.7293839,20.82405 L35.8164581,20.71905 C35.7293839,20.71905 35.5867624,20.67255 35.5687471,20.57055 C35.7293839,20.42205 35.9050335,20.48655 36.0971972,20.50455 L36.2052893,20.48655 C35.9605808,20.40105 36.1887752,20.14455 36.0971972,19.95705 C36.0266371,19.91355 35.85399,19.82805 35.7984427,19.93755 L35.9050335,20.01855 C35.9050335,20.10405 35.8855169,20.29755 35.9755936,20.31555 C35.9050335,20.37855 35.7473992,20.48655 35.6603251,20.31555 L35.6393072,20.14455 L35.4996882,20.48655 C35.5507317,20.57055 35.4456422,20.59305 35.3961,20.61405 L35.5131997,20.71905 L35.4651588,20.82405 L35.6603251,20.82405 L35.6603251,20.96805 C35.4996882,21.01455 35.3240386,20.90655 35.1634018,21.05505 C35.0598136,20.80305 34.8271153,21.20205 34.7790744,20.96805 L34.6169363,21.07905 L34.5283609,20.86755 L34.405256,20.86755 L34.3902432,20.82405 L34.3331946,20.99655 L34.1740591,20.90655 C34.1410309,21.07905 33.9833967,20.96805 33.8933199,20.88705 C33.7882304,20.99655 33.5900616,20.90655 33.5570335,21.10005 L33.6110795,21.18105 C33.4024018,21.54255 32.9760386,21.07905 32.8169031,21.54255 L32.6772841,21.48105 L32.6562662,21.52005 C32.7103123,21.73155 32.8709491,21.52005 32.9760386,21.60405 C33.0481,21.37155 33.1351742,21.45405 33.2898059,21.48105 L33.2777957,21.54255 C33.3648698,21.66855 33.5570335,21.56355 33.5900616,21.66855 L33.3828852,21.73155 L33.4699593,21.89955 L33.3648698,21.83655 C33.3078212,21.81405 33.3648698,21.73155 33.4024018,21.75255 C33.3078212,21.75255 33.2237496,21.75255 33.166701,21.71055 C33.1351742,21.83655 33.0120693,21.56355 32.9249951,21.75255 C32.9955552,21.79305 33.1171588,21.83655 33.0481,21.94455 L32.8709491,21.94455 L32.7313302,21.88005 C32.7103123,21.96555 32.8874632,21.83655 32.8874632,21.81405 C32.7448417,21.75255 32.4460872,21.83655 32.4460872,21.60405 L32.6562662,21.54255 L32.6037215,21.28755 L32.8709491,21.05505 C32.8169031,20.99655 32.7103123,20.96805 32.6562662,21.01455 C32.5887087,20.77905 32.3575118,20.80305 32.1998775,20.82405 C32.0587573,20.96805 31.8786038,20.77905 31.7765169,20.96805 L31.6714274,20.77905 L31.5122918,20.82405 L31.3831818,20.77905 L31.3831818,20.88705 L31.3156243,20.77905 C31.1775066,20.90655 31.0003558,20.77905 30.893765,20.88705 L30.9282944,20.82405 C30.8051895,20.76105 30.5754939,20.99655 30.5589798,20.71905 C30.5034325,20.80305 30.3472995,20.71905 30.3307854,20.82405 L30.3127701,20.76105 C30.1341179,20.82405 29.9059235,20.77905 29.7107573,20.88705 C29.3939875,20.67255 29.3759721,20.82405 29.0441895,20.48655 L29.0021537,20.48655 C28.9135783,20.29755 29.3234274,20.25255 29.1252586,20.06505 C29.1252586,19.85055 29.4465322,19.59705 29.2318494,19.44855 C29.3609593,19.22055 29.5516217,19.40655 29.7107573,19.28055 C29.9059235,19.36755 30.0965859,19.57605 30.2947547,19.40655 L30.3833302,19.40655 L30.398343,19.49205 C30.6475552,19.36755 31.1925194,19.38555 31.1775066,19.28055 C31.2480668,19.44855 31.4942765,19.32105 31.4942765,19.55655 C31.4732586,19.47105 31.4207138,19.32105 31.5122918,19.32105 C31.6519107,19.47105 31.8650923,19.11255 31.9671793,19.38555 C32.1278161,19.17405 32.2178928,19.68255 32.3409977,19.32105 C32.4460872,19.38555 32.2884529,19.82805 32.5181486,19.64205 L32.6562662,19.72305 L32.7313302,19.47105 L32.6772841,19.44855 C32.7313302,19.36755 32.8169031,19.36755 32.8874632,19.38555 C33.0661153,19.32105 33.166701,19.09155 33.3648698,19.00905 L33.4024018,18.94005 L33.3078212,18.86055 C33.4504427,18.75555 33.2402637,18.52455 33.4699593,18.54105 L33.5029875,18.33105 C33.1351742,17.88855 33.8197573,17.86755 33.6801384,17.59455 L33.6801384,17.48805 L33.699655,17.48805 C33.6290949,17.38005 33.7521997,17.19255 33.7882304,17.12955 L33.8572893,17.25555 L33.9443634,17.14755 C33.9083327,17.02305 33.7521997,16.91505 33.8933199,16.76955 L34.0524555,16.85205 C34.1605476,16.68555 33.8197573,16.21755 34.2806499,16.09305 L34.211591,15.92205 C34.6319491,15.85905 34.0524555,15.45855 34.4382841,15.37605 C34.4382841,15.16305 34.7790744,15.05655 34.7220258,15.28905 L34.6874964,15.28905 C34.7790744,15.53955 35.0222816,15.24855 35.1138596,15.47955 L35.2189491,15.45855 C35.3240386,15.53955 35.0598136,15.65055 35.2354632,15.71505 C35.2519772,15.62955 35.342054,15.47955 35.4111128,15.53955 C35.2519772,15.75105 35.2189491,15.90255 35.4651588,16.02855 C35.2189491,16.02855 35.2189491,16.55655 35.3240386,16.76955 L35.2189491,16.87305 C35.1468877,16.59555 35.0763276,16.64055 34.8646473,16.59555 L34.8271153,16.68555 C35.304522,16.57905 35.0222816,17.25555 35.1468877,17.38005 C34.9862509,17.25555 34.8271153,17.97105 34.7220258,17.57055 L34.6874964,17.48805 L34.459302,17.59455 L34.4743148,17.78205 L34.405256,17.82705 C34.4743148,17.92905 34.211591,18.01305 34.405256,18.10005 L34.459302,18.01305 L34.5433737,18.05655 C34.405256,17.80605 34.7220258,17.80605 34.8481332,17.74155 L34.9352074,17.88855 C34.8271153,17.82705 34.6874964,17.99505 34.6874964,18.10005 C34.4743148,18.18255 34.2446192,18.29055 34.0689696,18.10005 C33.7717164,18.20355 34.4382841,18.33105 34.4382841,18.45555 L34.211591,18.64755 L34.459302,18.75555 C34.2806499,18.81555 34.2296064,19.22055 34.0164248,19.17405 C33.9833967,19.22055 33.9443634,19.36755 33.9833967,19.44855 L34.1605476,19.40655 L34.2446192,19.59705 C34.4743148,19.64205 34.2806499,19.36755 34.4743148,19.47105 L34.3902432,19.55655 C34.4382841,19.72305 34.6169363,19.49205 34.6874964,19.66005 L34.6694811,19.66005 L34.8271153,19.66005 L34.7925859,19.78905 L34.8481332,19.82805 C34.9532228,19.64205 35.0598136,19.57605 35.1634018,19.82805 C35.1138596,19.85055 35.0222816,20.01855 35.1634018,20.04255 L35.3240386,19.78905 L35.2519772,19.66005 L35.4456422,19.64205 L35.4456422,19.78905 C35.5867624,19.72305 35.7804274,19.66005 35.85399,19.47105 L35.9605808,19.55655 L35.85399,19.64205 C35.85399,19.74405 35.9605808,19.85055 36.047655,19.74405 C36.1887752,19.82805 36.3974529,19.64205 36.3974529,19.91355 C36.5220591,19.93755 36.4860284,19.64205 36.5911179,19.72305 C36.6271486,19.66005 36.6646806,19.47105 36.7547573,19.55655 L36.8238161,19.66005 C36.6271486,19.66005 36.8042995,19.87155 36.7877854,20.01855 C36.6646806,20.10405 36.7547573,19.64205 36.5761051,19.85055 C36.6646806,19.93755 36.6271486,20.10405 36.6271486,20.21205 L36.5580898,20.29755 C36.6811946,20.25255 36.8928749,20.21205 36.9108903,20.06505 C37.1210693,20.12655 37.2847087,19.59705 37.4063123,19.95705 C37.2141486,19.85055 37.1405859,20.06505 37.0700258,20.21205 L37.1961332,20.31555 C37.2141486,20.21205 37.2967189,20.06505 37.3702816,20.10405 L37.560944,20.29755 L37.5083992,20.37855 Z M31.9341512,19.55655 L31.9341512,19.64205 L32.0407419,19.66005 L31.9341512,19.55655 Z M32.5887087,24.20205 L32.5887087,24.05505 C32.4130591,23.99355 32.6037215,24.20205 32.4460872,24.13605 L32.5016345,24.05505 L32.4460872,23.99355 L32.3575118,23.99355 L32.2178928,23.88555 C32.111302,23.99355 32.3229824,24.05505 32.1998775,24.09405 C32.1278161,24.13605 32.0587573,24.07605 32.0587573,24.01455 L32.1278161,23.96955 L32.1623455,23.75655 L32.2884529,23.80155 C32.2884529,23.86605 32.3409977,23.96955 32.4280719,23.90655 L32.5181486,23.75655 L32.6562662,24.05505 L32.5887087,24.20205 Z M32.0587573,24.43305 C32.0587573,24.33105 32.1998775,24.28905 32.2524223,24.28905 C32.1623455,24.28905 32.1623455,24.47805 32.0587573,24.43305 Z M32.1623455,24.81705 L32.094788,24.81705 C32.111302,24.72855 32.1473327,24.60405 32.1998775,24.56055 L32.3770284,24.68805 C32.3409977,24.77505 32.1278161,24.66705 32.1623455,24.81705 Z M32.2704376,23.29455 L32.111302,23.31255 L32.1998775,23.12655 L32.3229824,23.18955 L32.2704376,23.29455 Z M32.1623455,23.06205 L32.1623455,22.99905 C32.1998775,22.99905 32.2178928,23.04105 32.2178928,23.06205 L32.1623455,23.06205 Z M32.2178928,23.59005 L32.1998775,23.56905 L32.2178928,23.50605 L32.2524223,23.56905 L32.2178928,23.59005 Z M32.3229824,24.51855 L32.2704376,24.51855 L32.2704376,24.45255 L32.3409977,24.47805 L32.3229824,24.51855 Z M33.0661153,22.93455 L33.0120693,22.87305 L32.9249951,22.93455 C32.9955552,22.99905 33.0811281,23.12655 33.166701,23.04105 L33.2237496,23.06205 C33.2072355,23.22855 33.0120693,23.10405 32.9249951,23.22855 L33.0481,23.31255 L32.9760386,23.50605 L33.0481,23.59005 L32.8874632,23.65305 L32.8334171,23.46255 L32.8169031,23.46255 L32.9760386,23.21055 C32.8334171,23.14605 32.9760386,22.93455 32.8169031,22.93455 L32.8334171,22.66155 L32.7313302,22.82955 L32.7313302,22.85055 L32.6037215,22.85055 L32.5016345,22.72455 L32.4130591,22.82955 C32.5887087,22.87305 32.3229824,23.04105 32.5016345,23.10405 L32.6562662,22.99905 C32.6037215,23.14605 32.8169031,23.31255 32.6772841,23.46255 L32.7448417,23.56905 C32.6037215,23.37855 32.5541793,23.67705 32.4130591,23.61255 C32.4130591,23.50605 32.5181486,23.39955 32.6037215,23.37855 C32.5181486,23.33355 32.3229824,23.21055 32.4280719,23.06205 C32.3409977,22.91505 32.2524223,22.85055 32.3575118,22.66155 L32.3575118,22.53255 C32.4806166,22.53255 32.6562662,22.59855 32.7103123,22.45005 L32.8709491,22.53255 C32.9955552,22.53255 33.1171588,22.47105 33.2237496,22.38855 L33.2072355,22.27755 C33.1171588,22.45005 32.9760386,22.17705 32.8709491,22.27755 C32.7313302,22.13355 32.644256,22.49055 32.5016345,22.27755 L32.4280719,22.38855 L32.4130591,22.36605 C32.5181486,22.25655 32.2704376,21.89955 32.5887087,22.00605 C32.644256,22.02705 32.6772841,22.13355 32.7313302,22.19655 L32.7448417,22.19655 L32.7448417,22.02705 C32.9039772,22.19655 33.0811281,21.92205 33.2072355,22.17705 L33.3648698,22.11255 C33.4024018,22.40805 33.0661153,22.49055 33.0661153,22.93455 Z M32.5887087,19.49205 L32.4460872,19.44855 C32.4460872,19.32105 32.6037215,19.36755 32.6562662,19.44855 L32.5887087,19.49205 Z M32.5541793,20.25255 L32.5016345,20.37855 L32.6772841,20.50455 C32.6772841,20.40105 32.6562662,20.29755 32.5541793,20.25255 Z M32.5016345,24.66705 L32.5181486,24.60405 L32.5541793,24.62355 L32.5016345,24.66705 Z M32.5181486,21.18105 L32.5541793,21.10005 C32.5887087,21.10005 32.5887087,21.13755 32.5887087,21.18105 L32.5181486,21.18105 Z M32.6772841,20.10405 C32.6562662,20.10405 32.644256,20.14455 32.6562662,20.18805 L32.7448417,20.12655 L32.6772841,20.10405 Z M32.6562662,24.47805 L32.6562662,24.45255 L32.7313302,24.28905 L32.7448417,24.43305 L32.6562662,24.47805 Z M32.8169031,24.24405 L32.7313302,24.20205 C32.7103123,24.13605 32.8169031,24.05505 32.8709491,24.09405 L32.8169031,24.24405 Z M32.8874632,22.36605 L32.8874632,22.45005 C32.7448417,22.45005 32.8334171,22.38855 32.8874632,22.36605 Z M32.8169031,19.72305 L32.8709491,19.78905 C32.9249951,19.74405 33.0661153,19.68255 33.0661153,19.57605 C32.9760386,19.49205 32.8709491,19.64205 32.8169031,19.72305 Z M33.0811281,23.67705 L33.0661153,23.61255 C33.1171588,23.59005 33.1351742,23.61255 33.166701,23.65305 L33.0811281,23.67705 Z M33.1351742,22.00605 L33.1171588,21.94455 L33.2072355,21.94455 L33.2072355,22.00605 L33.1351742,22.00605 Z M33.4699593,21.48105 L33.4504427,21.48105 L33.4504427,21.37155 L33.5029875,21.45405 L33.4699593,21.48105 Z M33.4699593,18.54105 C33.4504427,18.73305 33.6290949,18.71055 33.6110795,18.81555 L33.6290949,18.81555 C33.6290949,18.71055 33.6110795,18.56505 33.4699593,18.54105 Z M33.5240054,22.21605 C33.4699593,22.07055 33.6110795,22.02705 33.6110795,22.17705 L33.5240054,22.21605 Z M33.699655,21.33105 L33.699655,21.26655 C33.7521997,21.26655 33.7717164,21.26655 33.7717164,21.28755 L33.7717164,21.33105 L33.699655,21.33105 Z M33.8407752,17.48805 L33.9999107,17.40105 C33.9443634,17.38005 33.8407752,17.33805 33.8407752,17.48805 Z M33.9443634,18.64755 C33.9083327,18.66855 33.9443634,18.71055 33.9833967,18.73305 L34.0164248,18.66855 L33.9443634,18.64755 Z M34.3902432,20.33805 C34.3331946,20.42205 34.211591,20.57055 34.1410309,20.50455 L34.1410309,20.57055 C34.211591,20.61405 34.3331946,20.52705 34.405256,20.48655 L34.4382841,20.50455 L34.405256,20.61405 C34.5283609,20.65155 34.5433737,20.48655 34.6694811,20.50455 L34.3902432,20.33805 Z M34.1740591,17.12955 L34.2296064,17.12955 L34.2446192,17.10555 C34.211591,17.06355 34.2296064,17.12955 34.1740591,17.12955 Z M34.211591,17.52705 L34.3001665,17.69955 L34.3331946,17.50605 L34.405256,17.52705 C34.3737292,17.31705 34.2806499,17.65005 34.211591,17.52705 Z M34.2296064,19.28055 C34.1740591,19.17405 34.3902432,19.17405 34.4382841,19.17405 C34.459302,19.28055 34.2806499,19.28055 34.2296064,19.28055 Z M34.3737292,16.66155 L34.459302,16.76955 C34.459302,16.66155 34.3902432,16.68555 34.3737292,16.66155 Z M34.459302,17.12955 L34.459302,17.23155 C34.5433737,17.12955 34.6319491,17.19255 34.7220258,17.23155 C34.6694811,17.06355 34.5433737,17.23155 34.459302,17.12955 Z M34.5643916,18.45555 L34.5433737,18.39255 C34.5643916,18.24555 34.6874964,18.26505 34.7790744,18.33105 C34.7790744,18.45555 34.6169363,18.33105 34.5643916,18.45555 Z M34.5643916,17.71605 L34.6169363,17.65005 L34.6319491,17.71605 L34.5643916,17.71605 Z M34.5974197,18.81555 C34.5643916,18.79755 34.5643916,18.73305 34.6169363,18.73305 L34.6319491,18.81555 L34.5974197,18.81555 Z M34.6169363,18.62655 L34.6319491,18.52455 L34.6874964,18.56505 L34.6169363,18.62655 Z M34.8481332,15.18405 L34.8646473,15.10155 L34.9141895,15.18405 L34.8481332,15.18405 Z M35.2189491,20.29755 L35.2519772,20.33805 L35.0763276,20.50455 L35.3240386,20.42205 L35.2189491,20.29755 Z M36.0131256,20.88705 C36.0971972,20.86755 36.0971972,20.77905 36.047655,20.67255 C35.9755936,20.71905 35.9755936,20.82405 36.0131256,20.88705 Z M36.1317266,19.64205 L36.1887752,19.47105 C36.2398187,19.49205 36.3479107,19.57605 36.2923634,19.66005 L36.1317266,19.64205 Z M36.2398187,20.12655 C36.3313967,20.14455 36.4349849,20.12655 36.5220591,20.10405 C36.4184708,20.01855 36.2052893,19.85055 36.2398187,20.12655 Z M36.4860284,20.37855 L36.2398187,20.42205 C36.3974529,20.48655 36.3479107,20.67255 36.2923634,20.82405 C36.3479107,20.67255 36.3974529,20.65155 36.5040437,20.65155 L36.4860284,20.37855 Z M36.9649363,19.82805 L36.9799491,19.72305 C37.0700258,19.74405 37.1045552,19.74405 37.0700258,19.85055 L36.9649363,19.82805 Z M37.5804606,20.06505 L37.5083992,19.99905 C37.4558545,19.89555 37.5804606,19.89555 37.5969747,19.97805 L37.5804606,20.06505 Z M37.7576115,20.42205 L37.8116575,20.57055 L37.6705373,20.57055 C37.5083992,20.35605 37.7936422,20.42205 37.7936422,20.27655 L37.9182483,20.37855 L37.9182483,20.46255 L37.7576115,20.42205 Z" id="Fill-18" fill="#2A2427"></path>
                    <path d="M5.45594731,15.95325 L9.23166343,15.95325 C10.6233488,15.92925 12.1501494,16.29225 12.1501494,17.97375 C12.1501494,18.69375 11.7162798,19.28625 11.0857427,19.59975 C11.9459754,19.85025 12.4774281,20.59425 12.4774281,21.51075 C12.4774281,23.42925 11.0632235,24.01725 9.3322491,24.01725 L5.45594731,24.01725 L5.45594731,15.95325 Z M7.5577376,19.12425 L9.18662506,19.12425 C9.54843325,19.12425 10.0483591,18.93375 10.0483591,18.36075 C10.0483591,17.76825 9.62800102,17.57925 9.18662506,17.57925 L7.5577376,17.57925 L7.5577376,19.12425 Z M7.5577376,22.33575 L9.24217238,22.33575 C9.91324399,22.33575 10.3771391,22.09725 10.3771391,21.42825 C10.3771391,20.72025 9.87571202,20.48175 9.24217238,20.48175 L7.5577376,20.48175 L7.5577376,22.33575 Z" id="Fill-20" fill="#2A2427"></path>
                    <path d="M18.5826785,18.83175 C18.4685813,18.02025 17.8350417,17.58975 16.9507885,17.58975 C15.596635,17.58975 15.07419,18.78525 15.07419,19.98675 C15.07419,21.18075 15.596635,22.37625 16.9507885,22.37625 C17.9386299,22.37625 18.5016095,21.81375 18.5826785,20.88675 L20.6844688,20.88675 C20.5733742,22.96875 19.0450724,24.18675 16.9988294,24.18675 C14.5562488,24.18675 12.9754023,22.32375 12.9754023,19.98675 C12.9754023,17.64675 14.5562488,15.77925 16.9988294,15.77925 C18.7403128,15.77925 20.6274202,16.89075 20.6844688,18.83175 L18.5826785,18.83175 Z" id="Fill-22" fill="#2A2427"></path>
                    <polygon id="Fill-24" fill="#2A2427" points="21.382113 15.95325 23.5424532 15.95325 26.3483432 20.92275 26.3678598 20.92275 26.3678598 15.95325 28.3465453 15.95325 28.3465453 24.01725 26.1877064 24.01725 23.3833176 18.99075 23.3592972 18.99075 23.3592972 24.01725 21.382113 24.01725"></polygon>
                    <path d="M0,51.84885 L2.99054731,51.84885 C4.19757545,51.84885 5.02027621,52.23885 5.02027621,53.42235 C5.02027621,54.04185 4.70951151,54.47835 4.15403836,54.74685 C4.93019949,54.96735 5.32353453,55.56435 5.32353453,56.35335 C5.32353453,57.64185 4.2291023,58.19385 3.08062404,58.19385 L0,58.19385 L0,51.84885 Z M1.39618926,54.41535 L2.81189514,54.41535 C3.30581586,54.41535 3.66762404,54.19485 3.66762404,53.66085 C3.66762404,53.05635 3.20523018,52.93185 2.70830691,52.93185 L1.39618926,52.93185 L1.39618926,54.41535 Z M1.39618926,57.11085 L2.89446547,57.11085 C3.4439335,57.11085 3.92584399,56.93235 3.92584399,56.27385 C3.92584399,55.62585 3.51449361,55.36635 2.91998721,55.36635 L1.39618926,55.36635 L1.39618926,57.11085 Z" id="Fill-26" fill="#FFFFFF"></path>
                    <path d="M6.01457315,55.01295 C6.08363197,53.83095 7.14503606,53.47545 8.1749133,53.47545 C9.09519719,53.47545 10.1971358,53.68095 10.1971358,54.78045 L10.1971358,57.16995 C10.1971358,57.58995 10.2406729,58.00845 10.3562714,58.19295 L9.07718184,58.19295 C9.0306422,58.05345 8.99611279,57.90195 8.98560384,57.75195 C8.58776496,58.16895 7.9977624,58.31895 7.4392867,58.31895 C6.56554246,58.31895 5.87195166,57.88545 5.87195166,56.94195 C5.87195166,55.90095 6.6541179,55.65195 7.4392867,55.54695 C8.21094399,55.42995 8.93456036,55.45695 8.93456036,54.94095 C8.93456036,54.39795 8.56074194,54.31845 8.11336087,54.31845 C7.63445294,54.31845 7.32368824,54.51645 7.27864987,55.01295 L6.01457315,55.01295 Z M8.93456036,55.94745 C8.71987749,56.13195 8.27549898,56.14095 7.88366522,56.21445 C7.49033018,56.29245 7.13452711,56.42595 7.13452711,56.88795 C7.13452711,57.35895 7.50083913,57.47445 7.91068824,57.47445 C8.89702839,57.47445 8.93456036,56.69445 8.93456036,56.41695 L8.93456036,55.94745 Z" id="Fill-28" fill="#FFFFFF"></path>
                    <path d="M11.1100634,53.59905 L12.3110864,53.59905 L12.3110864,54.45105 L12.3306031,54.45105 C12.5618,53.87205 13.1848307,53.47455 13.7988537,53.47455 C13.8874292,53.47455 13.9910174,53.49255 14.075089,53.51955 L14.075089,54.68955 C13.956488,54.66405 13.7703294,54.64905 13.6202015,54.64905 C12.6939125,54.64905 12.3771427,55.31505 12.3771427,56.12505 L12.3771427,58.19355 L11.1100634,58.19355 L11.1100634,53.59905 Z" id="Fill-30" fill="#FFFFFF"></path>
                    <path d="M17.4786381,55.21725 C17.3990703,54.70275 17.0702903,54.42675 16.546344,54.42675 C15.7371547,54.42675 15.4714284,55.24125 15.4714284,55.91775 C15.4714284,56.57925 15.7296483,57.36675 16.519321,57.36675 C17.1048197,57.36675 17.4441087,56.99475 17.5251777,56.43225 L18.7457174,56.43225 C18.582078,57.65175 17.7398606,58.31925 16.5268274,58.31925 C15.1426483,58.31925 14.2058504,57.34275 14.2058504,55.96275 C14.2058504,54.53175 15.060078,53.47425 16.5553517,53.47425 C17.6392749,53.47425 18.6391266,54.04275 18.7171931,55.21725 L17.4786381,55.21725 Z" id="Fill-32" fill="#FFFFFF"></path>
                    <path d="M20.4343558,56.2038 C20.4673839,57.0033 20.8592176,57.3678 21.5618161,57.3678 C22.0707496,57.3678 22.4790974,57.0588 22.5616678,56.7738 L23.6711128,56.7738 C23.3153097,57.8568 22.5616678,58.3188 21.5167777,58.3188 C20.0665425,58.3188 19.170279,57.3228 19.170279,55.9008 C19.170279,54.5253 20.1190872,53.4753 21.5167777,53.4753 C23.0841128,53.4753 23.8422586,54.7908 23.7521818,56.2038 L20.4343558,56.2038 Z M22.4881051,55.4028 C22.3710054,54.7623 22.0977726,54.4263 21.4837496,54.4263 C20.6805655,54.4263 20.4523711,55.0473 20.4343558,55.4028 L22.4881051,55.4028 Z" id="Fill-34" fill="#FFFFFF"></path>
                    <mask id="mask-8" fill="white">
                        <use xlink:href="#path-7"></use>
                    </mask>
                    <g id="Clip-37"></g>
                    <polygon id="Fill-36" fill="#FFFFFF" mask="url(#mask-8)" points="24.4723453 58.1955 25.7349207 58.1955 25.7349207 51.8505 24.4723453 51.8505"></polygon>
                    <path d="M28.9009675,53.47485 C30.3512028,53.47485 31.2849982,54.43785 31.2849982,55.90035 C31.2849982,57.35985 30.3512028,58.31835 28.9009675,58.31835 C27.4597399,58.31835 26.5244432,57.35985 26.5244432,55.90035 C26.5244432,54.43785 27.4597399,53.47485 28.9009675,53.47485 M28.9009675,57.36735 C29.7627015,57.36735 30.0224228,56.63085 30.0224228,55.90035 C30.0224228,55.16385 29.7627015,54.42585 28.9009675,54.42585 C28.0482412,54.42585 27.7885199,55.16385 27.7885199,55.90035 C27.7885199,56.63085 28.0482412,57.36735 28.9009675,57.36735" id="Fill-38" fill="#FFFFFF" mask="url(#mask-8)"></path>
                    <path d="M32.0413425,53.59905 L33.2423655,53.59905 L33.2423655,54.23655 L33.2678872,54.23655 C33.5891609,53.72355 34.1386289,53.47455 34.6730841,53.47455 C36.0167286,53.47455 36.3545164,54.23205 36.3545164,55.36605 L36.3545164,58.19355 L35.0934422,58.19355 L35.0934422,55.60005 C35.0934422,54.84555 34.8697517,54.46905 34.2797491,54.46905 C33.5966673,54.46905 33.3039179,54.85155 33.3039179,55.78605 L33.3039179,58.19355 L32.0413425,58.19355 L32.0413425,53.59905 Z" id="Fill-39" fill="#FFFFFF" mask="url(#mask-8)"></path>
                    <path d="M37.200487,55.01295 C37.2710471,53.83095 38.3309499,53.47545 39.3608271,53.47545 C40.2781084,53.47545 41.3815483,53.68095 41.3815483,54.78045 L41.3815483,57.16995 C41.3815483,57.58995 41.4265867,58.00845 41.5421852,58.19295 L40.2615944,58.19295 C40.2150547,58.05345 40.1805253,57.90195 40.1700164,57.75195 C39.7691749,58.16895 39.1821749,58.31895 38.6236992,58.31895 C37.7529575,58.31895 37.0578655,57.88545 37.0578655,56.94195 C37.0578655,55.90095 37.8400317,55.65195 38.6236992,55.54695 C39.3968578,55.42995 40.1174716,55.45695 40.1174716,54.94095 C40.1174716,54.39795 39.7421519,54.31845 39.2977734,54.31845 C38.8173642,54.31845 38.5050982,54.51645 38.4630624,55.01295 L37.200487,55.01295 Z M40.1174716,55.94745 C39.9027887,56.13195 39.4629141,56.14095 39.0680777,56.21445 C38.6777453,56.29245 38.3219422,56.42595 38.3219422,56.88795 C38.3219422,57.35895 38.6867529,57.47445 39.096602,57.47445 C40.0814409,57.47445 40.1174716,56.69445 40.1174716,56.41695 L40.1174716,55.94745 Z" id="Fill-40" fill="#FFFFFF" mask="url(#mask-8)"></path>
                    <path d="M14.7341504,47.1555 C14.4263882,48.525 13.5361299,49.362 12.0273448,49.362 C10.359424,49.362 9.4076133,48.369 9.4076133,46.683 C9.4076133,44.7045 10.6746926,42.96 12.7614701,42.96 C14.0825954,42.96 15.0944573,43.659 15.0944573,45.0705 L14.2807642,45.0705 C14.2807642,44.1165 13.6547309,43.6455 12.7614701,43.6455 C11.0620225,43.6455 10.2213064,45.21 10.2213064,46.683 C10.2213064,47.8635 10.8008,48.681 12.0273448,48.681 C13.030199,48.681 13.6547309,48.1035 13.9219586,47.1555 L14.7341504,47.1555 Z" id="Fill-41" fill="#FFFFFF" mask="url(#mask-8)"></path>
                    <path d="M17.8854847,44.68905 C19.066991,44.68905 19.7245512,45.33855 19.7245512,46.52055 C19.7245512,47.96655 18.829789,49.31955 17.278968,49.31955 C16.1139757,49.31955 15.409876,48.53955 15.409876,47.47155 C15.409876,46.02405 16.336165,44.68905 17.8854847,44.68905 M17.3555332,48.68055 C18.4184386,48.68055 18.9994335,47.45505 18.9994335,46.57905 C18.9994335,45.88905 18.6316202,45.33105 17.8344412,45.33105 C16.7219936,45.33105 16.1394974,46.54755 16.1394974,47.45955 C16.1394974,48.19005 16.5568529,48.68055 17.3555332,48.68055" id="Fill-42" fill="#FFFFFF" mask="url(#mask-8)"></path>
                    <path d="M23.2228309,46.0932 C23.2573604,45.5892 22.8099793,45.3312 22.3040483,45.3312 C21.8596698,45.3312 21.3642478,45.4497 21.3642478,45.8952 C21.3642478,46.3077 21.9452427,46.4682 22.5292402,46.7067 C23.110235,46.9482 23.7002376,47.2572 23.7002376,47.9517 C23.7002376,48.9327 22.7514294,49.3197 21.8941992,49.3197 C20.8823373,49.3197 20.0956673,48.9507 20.1061762,47.8227 L20.8297926,47.8227 C20.7967645,48.4827 21.3552402,48.6807 21.9647593,48.6807 C22.4361609,48.6807 22.9736187,48.5082 22.9736187,48.0012 C22.9736187,47.5737 22.3911225,47.4027 21.8071251,47.1627 C21.2201251,46.9317 20.6361276,46.6302 20.6361276,45.9642 C20.6361276,45.1422 21.4573271,44.6892 22.2800279,44.6892 C23.1012274,44.6892 23.9509512,45.0582 23.9509512,46.0932 L23.2228309,46.0932 Z" id="Fill-43" fill="#FFFFFF" mask="url(#mask-8)"></path>
                    <path d="M26.1916097,44.79225 L27.0758629,44.79225 L26.9377453,45.43425 L26.0579959,45.43425 L25.5085279,48.03525 C25.4995202,48.13875 25.4830061,48.22275 25.4830061,48.32625 C25.4830061,48.55725 25.6961877,48.62625 25.9213795,48.62625 C26.0670036,48.62625 26.2021187,48.59325 26.3372338,48.54975 L26.2111263,49.21725 C26.0399806,49.25025 25.8688348,49.26825 25.6961877,49.26825 C25.1572286,49.26825 24.7053437,49.11225 24.7053437,48.54975 C24.7053437,48.42075 24.7203565,48.31725 24.7473795,48.18075 L25.3268731,45.43425 L24.5837402,45.43425 L24.7203565,44.79225 L25.4679934,44.79225 L25.7412261,43.47975 L26.4693463,43.47975 L26.1916097,44.79225 Z" id="Fill-44" fill="#FFFFFF" mask="url(#mask-8)"></path>
                    <path d="M27.451633,46.125 C27.597257,45.1425 28.4289655,44.6895 29.3732698,44.6895 C30.2289987,44.6895 30.9901471,44.9205 30.9901471,45.819 C30.9901471,46.065 30.9060754,46.383 30.8520294,46.6245 L30.5727916,47.829 C30.5367609,48.0105 30.451188,48.2595 30.451188,48.4635 C30.451188,48.669 30.5442673,48.738 30.6673721,48.738 C30.7379322,48.738 30.8295102,48.702 30.8970678,48.681 L30.7859731,49.218 C30.6748785,49.2765 30.4707046,49.32 30.3385921,49.32 C29.9392519,49.32 29.7260703,49.0815 29.7666049,48.696 L29.7500908,48.681 C29.4408274,49.0845 29.0129629,49.32 28.2683286,49.32 C27.5312008,49.32 26.9141752,48.9765 26.9141752,48.069 C26.9141752,46.7865 28.1737481,46.701 29.1510806,46.6155 C29.9197353,46.5465 30.2650294,46.503 30.2650294,45.9135 C30.2650294,45.4335 29.7560959,45.3315 29.3732698,45.3315 C28.8147941,45.3315 28.2683286,45.552 28.1812545,46.125 L27.451633,46.125 Z M28.4394744,48.681 C29.002454,48.681 29.4243133,48.489 29.6795307,48.096 C29.9197353,47.7615 29.9647737,47.3655 30.0638581,46.9575 L30.0488453,46.9575 C29.7320754,47.1465 29.1570857,47.187 28.625633,47.2575 C28.1061905,47.334 27.6407941,47.4975 27.6407941,48.063 C27.6407941,48.471 28.0266228,48.681 28.4394744,48.681 L28.4394744,48.681 Z" id="Fill-45" fill="#FFFFFF" mask="url(#mask-8)"></path>
                </g>
            </g>
        </g>
    </g>
</svg>