<?xml version="1.0" encoding="UTF-8" standalone="no"?>
<svg width="91px" height="48px" viewBox="0 0 91 48" version="1.1" xmlns="http://www.w3.org/2000/svg" xmlns:xlink="http://www.w3.org/1999/xlink">
    <!-- Generator: sketchtool 41.2 (35397) - http://www.bohemiancoding.com/sketch -->
    <title>96D834A7-6F8D-42CE-92FA-956F90598A08</title>
    <desc>Created with sketchtool.</desc>
    <defs></defs>
    <g id="COMPONENTS-&amp;-ASSETS" stroke="none" stroke-width="1" fill="none" fill-rule="evenodd" opacity="0.900000036">
        <g transform="translate(-881.000000, -5496.000000)" id="Page-1">
            <g transform="translate(881.000000, 5496.000000)">
                <polygon id="Fill-2" fill="#FFFFFF" points="24.6802757 38.1510486 32.1444646 47.0381838 41.2291042 38.1510486 39.6767397 34.179373 33.000405 31.1728865"></polygon>
                <polygon id="Fill-3" fill="#FFFFFF" points="37.4600487 0.262313514 39.6932749 12.9051243 35.1353925 15.7150703 24.685139 7.96631351 32.0773511 0.252583784"></polygon>
                <polygon id="Fill-4" fill="#FFFFFF" points="58.1312027 0.267178378 66.7120046 4.18631351 62.4342482 11.7463135 55.6470303 15.7102054 49.3480875 11.6568"></polygon>
                <polygon id="Fill-5" fill="#FFFFFF" points="66.6863264 39.8940324 64.4122486 47.0434378 55.2128351 47.0434378 50.6160464 39.3919784 58.4556819 31.1528432"></polygon>
                <path d="M7.57625319,22.2861405 C7.48093256,21.2761946 6.85259453,20.7001946 5.8546459,20.7001946 C4.74386877,20.7001946 4.0707884,21.6517622 4.0707884,23.5198703 C4.0707884,24.8742486 4.36453157,26.1527351 5.97525568,26.1527351 C7.00043877,26.1527351 7.48093256,25.438573 7.60348766,24.5142486 L10.6498572,24.5142486 C10.3677859,27.0070054 8.58003778,28.5151135 6.03361524,28.5151135 C2.83745617,28.5151135 0.901863795,26.5536 0.901863795,23.4128432 C0.901863795,20.2837622 3.02226147,18.3358703 5.72430953,18.3358703 C8.67535841,18.3358703 10.3288795,19.7972757 10.581771,22.2861405 L7.57625319,22.2861405 Z" id="Fill-6" fill="#FBFBFB"></path>
                <polygon id="Fill-8" fill="#FBFBFB" points="17.2686104 24.9674595 16.247318 21.5056216 15.2688225 24.9674595 14.6638283 26.9873514 14.301999 28.2561081 11.2011606 28.2561081 14.6638283 18.5886486 17.8852766 18.5886486 21.345999 28.2561081 18.1945823 28.2561081 17.8191357 26.9873514"></polygon>
                <polygon id="Fill-10" fill="#FBFBFB" points="21.0187964 18.5888432 29.8758336 18.5888432 29.8758336 21.1263568 27.0337226 21.1263568 27.0337226 28.2563027 23.864798 28.2563027 23.864798 21.1263568 21.0187964 21.1263568"></polygon>
                <polygon id="Fill-12" fill="#FBFBFB" points="35.3182525 24.9674595 34.3008507 21.5056216 33.3165193 24.9674595 32.7134704 26.9873514 32.3496958 28.2561081 29.252748 28.2561081 32.7134704 18.5886486 35.9388093 18.5886486 39.3995317 28.2561081 36.2403337 28.2561081 35.8668325 26.9873514"></polygon>
                <polygon id="Fill-14" fill="#FBFBFB" points="40.5675012 28.2566919 40.5675012 18.5892324 43.7325352 18.5892324 43.7325352 26.0032865 48.0842138 26.0032865 48.0842138 28.2566919"></polygon>
                <path d="M49.4383503,18.5888432 L52.6072749,18.5888432 L52.6072749,24.3780324 C52.6072749,25.3296 52.7959708,26.1527351 54.0954439,26.1527351 C55.2412368,26.1527351 55.5797223,25.4268973 55.5797223,24.3780324 L55.5797223,18.5888432 L58.7428109,18.5888432 L58.7428109,24.0588973 C58.7428109,27.1607351 57.3032749,28.5151135 54.0954439,28.5151135 C51.1054886,28.5151135 49.4383503,27.3708973 49.4383503,24.0433297 L49.4383503,18.5888432 Z" id="Fill-16" fill="#FBFBFB"></path>
                <polygon id="Fill-18" fill="#FBFBFB" points="67.0242283 23.8666378 66.9036186 21.6696649 66.9036186 18.5892324 69.9402615 18.5892324 69.9402615 28.2566919 66.9717047 28.2566919 63.5187635 22.9968 63.6413186 25.1996108 63.6413186 28.2566919 60.612457 28.2566919 60.612457 18.5892324 63.5732325 18.5892324"></polygon>
                <polygon id="Fill-20" fill="#FBFBFB" points="77.6730989 28.2566919 74.502229 28.2566919 74.502229 24.7423135 70.9092249 18.5892324 74.4458147 18.5892324 76.1148984 21.8662054 77.7781461 18.5892324 81.271939 18.5892324 77.6730989 24.687827"></polygon>
                <polygon id="Fill-22" fill="#FBFBFB" points="86.3309355 24.9674595 85.3115884 21.5056216 84.3292023 24.9674595 83.7261534 26.9873514 83.3662694 28.2561081 80.265431 28.2561081 83.7261534 18.5886486 86.949547 18.5886486 90.4161054 28.2561081 87.2569074 28.2561081 86.8853514 26.9873514"></polygon>
            </g>
        </g>
    </g>
</svg>