<?xml version="1.0" encoding="UTF-8" standalone="no"?>
<svg width="144px" height="50px" viewBox="0 0 144 50" version="1.1" xmlns="http://www.w3.org/2000/svg" xmlns:xlink="http://www.w3.org/1999/xlink">
    <!-- Generator: sketchtool 41.2 (35397) - http://www.bohemiancoding.com/sketch -->
    <title>105F54BE-6053-424E-A773-08E00DF19898</title>
    <desc>Created with sketchtool.</desc>
    <defs></defs>
    <g id="COMPONENTS-&amp;-ASSETS" stroke="none" stroke-width="1" fill="none" fill-rule="evenodd" opacity="0.900000036">
        <g transform="translate(-498.000000, -5496.000000)" id="Page-1">
            <g transform="translate(498.000000, 5495.000000)">
                <g id="Group-7" transform="translate(0.000000, 0.588000)">
                    <path d="M0,0.912 L120.160852,0.912 C133.097371,0.912 143.579299,11.724 143.579299,25.1625 C143.579299,38.6055 133.097371,49.5 120.160852,49.5 L120.126322,49.5 L0,49.5 L0,0.912 Z" id="Fill-1" fill="#9D9D9C"></path>
                    <path d="M0,0.912 L27.002,0.912 L24.8942046,0.912 C37.8292225,0.912 48.3141535,11.724 48.3141535,25.1625 C48.3141535,38.6055 37.8292225,49.5 24.8942046,49.5 L26.9674706,49.5 L0,49.5 L0,0.912 Z" id="Fill-3" fill="#706F6F"></path>
                    <path d="M25.0158082,40.31265 L37.6911049,27.65115 L25.0158082,14.98665 L12.3465166,27.65115 L25.0158082,40.31265 Z M37.8757621,27.65115 C37.8757621,27.65115 36.458555,30.19215 32.0823274,34.57215 C27.6400435,39.00315 25.0158082,40.49415 25.0158082,40.49415 C25.0158082,40.49415 22.4756445,39.07965 18.0964143,34.69965 C13.6541304,30.26565 12.1618593,27.65115 12.1618593,27.65115 C12.1618593,27.65115 13.5850716,25.11015 17.9628005,20.73465 C22.4005806,16.30215 25.0158082,14.81265 25.0158082,14.81265 C25.0158082,14.81265 27.5649795,16.21965 31.9427084,20.59965 C36.3789872,25.03215 37.8757621,27.65115 37.8757621,27.65115 L37.8757621,27.65115 Z M25.0158082,40.31265 L37.6911049,27.65115 L25.0158082,14.98665 L12.3465166,27.65115 L25.0158082,40.31265 Z M37.8757621,27.65115 C37.8757621,27.65115 36.458555,30.19215 32.0823274,34.57215 C27.6400435,39.00315 25.0158082,40.49415 25.0158082,40.49415 C25.0158082,40.49415 22.4756445,39.07965 18.0964143,34.69965 C13.6541304,30.26565 12.1618593,27.65115 12.1618593,27.65115 C12.1618593,27.65115 13.5850716,25.11015 17.9628005,20.73465 C22.4005806,16.30215 25.0158082,14.81265 25.0158082,14.81265 C25.0158082,14.81265 27.5649795,16.21965 31.9427084,20.59965 C36.3789872,25.03215 37.8757621,27.65115 37.8757621,27.65115 L37.8757621,27.65115 Z M36.641711,27.47115 L35.4842251,27.47115 L35.4842251,26.30715 L36.641711,27.47115 Z M34.1961279,25.02465 L34.1961279,27.47115 L32.9125345,27.47115 L32.9125345,23.73915 L34.1961279,25.02465 Z M31.6274399,22.45965 L31.6274399,27.47115 L30.3468491,27.47115 L30.3468491,21.17415 L31.6274399,22.45965 Z M29.0587519,19.89165 L29.0587519,27.47115 L27.7766598,27.47115 L27.7766598,18.60915 L29.0587519,19.89165 Z M26.4915652,17.32515 L26.4915652,27.47115 L25.2064706,27.47115 L25.2064706,16.04565 L26.4915652,17.32515 Z M13.4004143,27.83565 L14.5669079,27.83565 L14.5669079,29.00565 L13.4004143,27.83565 Z M15.849,30.28365 L15.849,27.83565 L17.1340946,27.83565 L17.1340946,31.56315 L15.849,30.28365 Z M18.4146854,32.85165 L18.4146854,27.83565 L19.7027826,27.83565 L19.7027826,34.13265 L18.4146854,32.85165 Z M20.9833734,35.41965 L20.9833734,27.83565 L22.268468,27.83565 L22.268468,36.70065 L20.9833734,35.41965 Z M23.5475575,37.98315 L23.5475575,27.83565 L24.8386573,27.83565 L24.8386573,39.26115 L23.5475575,37.98315 Z M25.2064706,31.03215 L27.7766598,31.03215 L27.7766598,27.83565 L25.2064706,27.83565 L25.2064706,31.03215 Z M27.7766598,36.70065 L25.2064706,39.26115 L25.2064706,32.31315 L27.7766598,32.31315 L27.7766598,36.70065 Z M22.268468,18.60315 L24.8386573,16.04565 L24.8386573,22.99365 L22.268468,22.99365 L22.268468,18.60315 Z M22.2699693,27.47115 L24.8386573,27.47115 L24.8386573,24.27765 L22.2699693,24.27765 L22.2699693,27.47115 Z M38.521312,27.65715 C38.521312,27.36465 38.7540102,27.13665 39.0422558,27.13665 C39.3274987,27.13665 39.566202,27.36465 39.566202,27.65715 C39.566202,27.94365 39.3274987,28.18065 39.0422558,28.18065 C38.7540102,28.18065 38.521312,27.94365 38.521312,27.65715 L38.521312,27.65715 Z M10.4714194,27.65715 C10.4714194,27.36465 10.7101228,27.13665 10.9953657,27.13665 C11.2851125,27.13665 11.519312,27.36465 11.519312,27.65715 C11.519312,27.94365 11.2851125,28.18065 10.9953657,28.18065 C10.7101228,28.18065 10.4714194,27.94365 10.4714194,27.65715 L10.4714194,27.65715 Z M24.497867,41.66715 C24.497867,41.38215 24.7350691,41.14665 25.0233146,41.14665 C25.3145627,41.14665 25.542757,41.38215 25.542757,41.66715 C25.542757,41.95965 25.3145627,42.19065 25.0233146,42.19065 C24.7350691,42.19065 24.497867,41.95965 24.497867,41.66715 L24.497867,41.66715 Z M21.7940639,9.23115 C21.6409335,9.18465 21.481798,9.16065 21.3166573,9.16065 C20.5975448,9.16065 20.022555,9.59715 20.022555,10.12665 C20.022555,10.37715 20.151665,10.61115 20.3558389,10.78665 L19.7868542,11.35365 C19.4280486,11.03265 19.2133657,10.60215 19.2133657,10.13115 C19.2133657,9.15015 20.1531662,8.35515 21.3166573,8.35515 C21.6124092,8.35515 21.9036573,8.40615 22.1678824,8.50965 C22.5477059,8.07015 23.1647315,7.78515 23.856821,7.78515 C24.287688,7.78515 24.6840256,7.89015 25.0158082,8.07915 C25.3535959,7.89015 25.7574399,7.78515 26.1792992,7.78515 C26.8758926,7.78515 27.4914169,8.07015 27.8682379,8.50965 C28.1309616,8.40615 28.4207084,8.35515 28.7269693,8.35515 C29.8874578,8.35515 30.8272583,9.15015 30.8272583,10.13115 C30.8272583,10.60215 30.6005652,11.03265 30.2522685,11.35365 L29.6847852,10.78665 C29.8889591,10.61115 30.0195703,10.37715 30.0195703,10.12665 C30.0195703,9.59715 29.4385754,9.16065 28.7269693,9.16065 C28.5558235,9.16065 28.3981893,9.18465 28.2420563,9.23115 C28.267578,9.33915 28.278087,9.45015 28.278087,9.56265 C28.278087,9.91215 28.1594859,10.24665 27.9508082,10.52715 L27.3698133,9.94215 C27.4388721,9.82215 27.4719003,9.69465 27.4719003,9.56265 C27.4719003,9.02265 26.8924066,8.58915 26.1792992,8.58915 C25.9075678,8.58915 25.6493478,8.65815 25.4391688,8.76615 L25.4391688,9.93315 L24.6299795,9.93315 L24.6299795,8.78715 C24.416798,8.66265 24.1480691,8.58915 23.8538184,8.58915 C23.1452148,8.58915 22.5672225,9.02265 22.5672225,9.56265 C22.5672225,9.69465 22.6032532,9.82215 22.6678082,9.94215 L22.085312,10.52715 C21.8736317,10.24665 21.7595345,9.91215 21.7595345,9.56265 C21.7595345,9.45015 21.7715448,9.33915 21.7940639,9.23115 L21.7940639,9.23115 Z M21.0764527,13.48515 L21.5268363,14.16465 C22.5477059,13.69365 23.7577366,13.38015 25.0158082,13.38015 C26.2933964,13.38015 27.497422,13.69365 28.5182916,14.16465 L28.9641714,13.48515 C27.8141918,12.93315 26.4705473,12.60765 25.030821,12.60765 C23.5955985,12.60765 22.2354399,12.92715 21.0764527,13.48515 L21.0764527,13.48515 Z M24.4783504,6.69015 C24.4783504,6.38565 24.7215575,6.14265 25.0263171,6.14265 C25.3280742,6.14265 25.5727826,6.38565 25.5727826,6.69015 C25.5727826,6.98865 25.3280742,7.23315 25.0263171,7.23315 C24.7215575,7.23315 24.4783504,6.98865 24.4783504,6.69015 L24.4783504,6.69015 Z M21.0854604,12.82515 C20.8797852,12.80715 20.7146445,12.66015 20.6065524,12.43965 C20.7536777,12.24765 20.9458414,12.13815 21.1500153,12.16065 C21.3511867,12.18465 21.525335,12.33015 21.6289233,12.54615 C21.4802967,12.73815 21.2851304,12.83865 21.0854604,12.82515 L21.0854604,12.82515 Z M20.7026343,11.83665 C20.6260691,11.65365 20.4324041,11.53815 20.1906982,11.50515 C20.0570844,11.70165 20.0135473,11.92515 20.0946164,12.10965 C20.178688,12.29115 20.3648465,12.40815 20.6065524,12.43965 C20.7446701,12.24015 20.7882072,12.02565 20.7026343,11.83665 L20.7026343,11.83665 Z M23.1422123,12.22965 C22.9440435,12.16815 22.8149335,11.99115 22.7518798,11.75265 C22.9380384,11.59965 23.1542225,11.53665 23.3448849,11.59065 C23.5400512,11.65965 23.6721637,11.83665 23.7262097,12.07215 C23.544555,12.22515 23.334376,12.29115 23.1422123,12.22965 L23.1422123,12.22965 Z M22.5942455,12.34815 C22.7458747,12.21015 22.7969182,11.99115 22.7518798,11.75265 C22.526688,11.68815 22.3014962,11.71365 22.1513683,11.85015 C21.9967366,11.98665 21.9516982,12.20565 21.993734,12.43965 C22.2234297,12.51015 22.4441176,12.47715 22.5942455,12.34815 L22.5942455,12.34815 Z M22.9740691,11.18565 C22.9350358,10.98615 22.7759003,10.83465 22.5477059,10.75515 C22.3690537,10.92015 22.2804783,11.12715 22.3225141,11.32365 C22.3660512,11.52165 22.5296905,11.67015 22.7563836,11.75265 C22.9320332,11.58915 23.0176061,11.38365 22.9740691,11.18565 L22.9740691,11.18565 Z M28.9356471,12.82515 C29.1428235,12.80715 29.3094655,12.66015 29.4130537,12.43965 C29.2674297,12.24765 29.0662583,12.13815 28.8635857,12.16065 C28.6669182,12.18465 28.5002762,12.33015 28.3981893,12.54615 C28.5453146,12.73815 28.7389795,12.83865 28.9356471,12.82515 L28.9356471,12.82515 Z M29.3139693,11.83665 C29.404046,11.65365 29.5917059,11.53815 29.8274066,11.50515 C29.9655243,11.70165 30.0075601,11.92515 29.926491,12.10965 C29.8424194,12.29115 29.6472532,12.40815 29.4130537,12.43965 C29.2794399,12.24015 29.2283964,12.02565 29.3139693,11.83665 L29.3139693,11.83665 Z M26.8788951,12.22965 C27.0770639,12.16815 27.2106777,11.99115 27.2647238,11.75265 C27.0830691,11.59965 26.8668849,11.53665 26.6777238,11.59065 C26.4765524,11.65965 26.350445,11.83665 26.2888926,12.07215 C26.4765524,12.22515 26.6882327,12.29115 26.8788951,12.22965 L26.8788951,12.22965 Z M27.4238593,12.34815 C27.2707289,12.21015 27.222688,11.99115 27.2647238,11.75265 C27.4989233,11.68815 27.7211125,11.71365 27.8682379,11.85015 C28.0183657,11.98665 28.0694092,12.20565 28.0258721,12.43965 C27.7946752,12.51015 27.5754885,12.47715 27.4238593,12.34815 L27.4238593,12.34815 Z M27.0485396,11.18565 C27.0920767,10.98615 27.2542148,10.83465 27.4824092,10.75515 C27.6520537,10.92015 27.734624,11.12715 27.6955908,11.32365 C27.6520537,11.52165 27.4929182,11.67015 27.2647238,11.75265 C27.093578,11.58915 27.002,11.38365 27.0485396,11.18565 L27.0485396,11.18565 Z M24.756087,12.06315 C24.9332379,11.96565 25.0263171,11.75715 25.0353248,11.52165 C24.8236445,11.40315 24.5984527,11.38365 24.4258056,11.49015 C24.2486547,11.58915 24.1555754,11.78865 24.1480691,12.03315 C24.3612506,12.14115 24.5819386,12.16815 24.756087,12.06315 L24.756087,12.06315 Z M25.3145627,12.06315 C25.1374118,11.96565 25.0458338,11.75715 25.0353248,11.52165 C25.2485064,11.40315 25.4661918,11.38365 25.6463453,11.49015 C25.8219949,11.58915 25.9150742,11.78865 25.9225806,12.03315 C25.7109003,12.14115 25.4872097,12.16815 25.3145627,12.06315 L25.3145627,12.06315 Z M24.7020409,11.01165 C24.7020409,10.80465 24.8296496,10.62615 25.0353248,10.49715 C25.2379974,10.62615 25.3731125,10.80465 25.3731125,11.01165 C25.3731125,11.21115 25.2379974,11.38815 25.0353248,11.52165 C24.8296496,11.38815 24.7020409,11.21115 24.7020409,11.01165 L24.7020409,11.01165 Z" id="Fill-5" fill="#FFFFFF"></path>
                </g>
                <polygon id="Fill-8" fill="#FFFFFF" points="29.062355 36.0003 29.062355 36.0003 29.062355 32.9013 32.1609944 32.9013"></polygon>
                <polygon id="Fill-9" fill="#FFFFFF" points="17.8844338 23.58105 20.9830731 20.47305 20.9830731 23.58105"></polygon>
                <polygon id="Fill-10" fill="#FFFFFF" points="29.062355 28.42335 29.062355 30.02235 29.062355 31.61985 31.2557233 31.61985 33.4475903 31.61985 36.6423115 28.42335"></polygon>
                <polygon id="Fill-11" fill="#FFFFFF" points="16.6033926 24.86325 13.3996637 28.05975 20.984124 28.05975 20.984124 24.86325"></polygon>
                <g id="Group-16" transform="translate(58.048593, 12.588000)" fill="#FFFFFF">
                    <path d="M65.0176831,19.335 C65.0176831,20.451 64.2190028,21.063 63.0855373,21.063 C62.518054,21.063 62.0091205,20.6985 62.0091205,20.118 C62.0091205,19.5075 62.545077,19.1745 63.1005501,19.131 L65.0176831,18.9855 L65.0176831,19.335 Z M67.4437496,22.2525 L67.4437496,20.919 C67.4437496,20.919 67.3281512,20.9475 67.2110514,20.9475 C66.9047905,20.9475 66.7876908,20.8155 66.7876908,20.4675 L66.7876908,17.667 C66.7876908,17.1585 66.7576652,16.6185 66.5700054,16.1385 C66.1331332,15.009 65.0326959,14.601 63.7385936,14.601 C62.0526575,14.601 60.7015066,15.357 60.600921,17.0565 L62.3559159,17.0565 C62.4009542,16.359 62.8933737,15.9795 63.7385936,15.9795 C64.7699721,15.9795 65.0176831,16.4595 65.0176831,17.1735 L65.0176831,17.6385 L62.7942893,17.796 C61.3560642,17.898 60.2376115,18.723 60.2376115,20.1615 C60.2376115,21.3975 61.1639005,22.5285 62.9684376,22.5285 C64.0448545,22.5285 64.9155962,22.0065 65.2638928,21.3975 C65.3224427,21.9615 65.7593148,22.4565 66.5429824,22.4565 C66.9783532,22.4565 67.1374887,22.3845 67.4437496,22.2525 L67.4437496,22.2525 Z M58.7093097,22.3395 L58.7093097,17.3025 C58.7093097,15.7335 57.7665066,14.601 56.1556345,14.601 C55.2818903,14.601 54.3796217,14.964 53.9277368,15.765 L53.7971256,14.79 L52.2748289,14.79 L52.2748289,22.3395 L54.0883737,22.3395 L54.0883737,19.2615 C54.0883737,18.624 54.0733609,17.8395 54.3375859,17.244 C54.5852969,16.692 55.005655,16.2855 55.646701,16.2855 C56.6045169,16.2855 56.8942637,16.8225 56.8942637,17.7075 L56.8942637,22.3395 L58.7093097,22.3395 Z M48.6837701,18.5655 C48.6837701,19.278 48.5846857,19.9875 48.1463123,20.469 C47.9016038,20.73 47.493256,20.949 46.997834,20.949 C46.5039133,20.949 46.098568,20.73 45.8493558,20.469 C45.4139849,19.9875 45.3133992,19.278 45.3133992,18.5655 C45.3133992,17.8545 45.4139849,17.142 45.8493558,16.6635 C46.098568,16.4025 46.5039133,16.182 46.997834,16.182 C47.493256,16.182 47.9016038,16.4025 48.1463123,16.6635 C48.5846857,17.142 48.6837701,17.8545 48.6837701,18.5655 L48.6837701,18.5655 Z M50.5258391,18.5655 C50.5258391,17.2875 50.2090693,16.488 49.6415859,15.777 C49.1191409,15.1395 48.1463123,14.601 46.997834,14.601 C45.8493558,14.601 44.8765271,15.1395 44.3555834,15.777 C43.7881,16.488 43.4683276,17.2875 43.4683276,18.5655 C43.4683276,19.842 43.7881,20.643 44.3555834,21.354 C44.8765271,21.9915 45.8493558,22.5285 46.997834,22.5285 C48.1463123,22.5285 49.1191409,21.9915 49.6415859,21.354 C50.2090693,20.643 50.5258391,19.842 50.5258391,18.5655 L50.5258391,18.5655 Z M42.4939977,22.3245 L42.4939977,20.802 C42.3904095,20.802 42.3468724,20.817 42.1862355,20.817 C41.5617036,20.817 41.4611179,20.5275 41.4611179,20.091 L41.4611179,11.844 L39.6295578,11.844 L39.6295578,20.3955 C39.6295578,21.8325 40.4582637,22.428 41.6953174,22.428 C42.0586269,22.428 42.129187,22.398 42.4939977,22.3245 L42.4939977,22.3245 Z M36.1571,17.811 L32.8873148,17.811 C32.9023276,17.3175 33.0194274,16.9695 33.2806499,16.6335 C33.5433737,16.2855 33.9937573,16.053 34.5432253,16.053 C35.0656703,16.053 35.4454939,16.227 35.6917036,16.488 C35.9844529,16.809 36.1420872,17.244 36.1571,17.811 L36.1571,17.811 Z M37.9736473,18.624 C38.0036729,17.6805 37.8715604,16.8225 37.3190898,15.9945 C36.6960591,15.051 35.6781921,14.601 34.5582381,14.601 C33.5283609,14.601 32.7131665,14.9805 32.1471844,15.561 C31.4205655,16.299 31.0587573,17.376 31.0587573,18.579 C31.0587573,19.8135 31.4641026,20.8755 32.2207471,21.6015 C32.8167547,22.167 33.5703967,22.5285 34.6017752,22.5285 C35.5610923,22.5285 36.506898,22.2225 37.1449414,21.468 C37.4361895,21.123 37.7424504,20.526 37.7859875,20.076 L36.0400003,20.076 C35.9679389,20.352 35.8373276,20.5545 35.6781921,20.7135 C35.413967,20.9775 35.0956959,21.078 34.5732509,21.078 C34.0778289,21.078 33.7160207,20.8605 33.4547982,20.613 C33.0899875,20.2635 32.8873148,19.7115 32.9023276,19.131 L37.9601358,19.131 C37.9601358,18.9705 37.9736473,18.624 37.9736473,18.624 L37.9736473,18.624 Z M29.9673276,19.6695 L28.1808059,19.6695 C28.1657931,19.947 28.0772176,20.178 27.9616192,20.3655 C27.745435,20.7015 27.3505987,20.934 26.7981281,20.934 C26.3042074,20.934 25.9423992,20.7135 25.6946882,20.454 C25.2593174,19.9755 25.187256,19.2615 25.187256,18.552 C25.187256,17.8395 25.2593174,17.1135 25.6946882,16.6335 C25.9423992,16.3725 26.3042074,16.17 26.7981281,16.17 C27.3505987,16.17 27.745435,16.4025 27.9616192,16.7355 C28.0772176,16.923 28.1657931,17.157 28.1808059,17.4315 L29.9673276,17.4315 C29.9388033,16.8375 29.7346294,16.242 29.3848315,15.792 C28.8623864,15.1395 27.9481077,14.601 26.7981281,14.601 C25.6511512,14.601 24.691834,15.1545 24.169389,15.792 C23.6049082,16.503 23.3421844,17.448 23.3421844,18.552 C23.3421844,19.656 23.6049082,20.5995 24.169389,21.3105 C24.691834,21.9465 25.6511512,22.5 26.7981281,22.5 C27.9481077,22.5 28.8623864,21.9645 29.3848315,21.3105 C29.7346294,20.8605 29.9388033,20.2665 29.9673276,19.6695 L29.9673276,19.6695 Z M22.7897138,16.473 L22.7897138,14.7315 C22.5990514,14.7045 22.4113916,14.6895 22.2237317,14.6895 C21.3349747,14.6895 20.4327061,15.051 20.087412,15.921 L19.9267752,14.79 L18.3864632,14.79 L18.3864632,22.3395 L20.216522,22.3395 L20.216522,18.537 C20.216522,17.3175 20.884591,16.4025 22.1621793,16.4025 C22.3663532,16.4025 22.5825373,16.4295 22.7897138,16.473 L22.7897138,16.473 Z M14.3750463,19.335 C14.3750463,20.451 13.5778673,21.063 12.4429005,21.063 C11.8754171,21.063 11.3664836,20.6985 11.3664836,20.118 C11.3664836,19.5075 11.9054427,19.1745 12.4579133,19.131 L14.3750463,18.9855 L14.3750463,19.335 Z M16.8026141,22.2525 L16.8026141,20.919 C16.8026141,20.919 16.6855143,20.9475 16.5684146,20.9475 C16.2651563,20.9475 16.1480565,20.8155 16.1480565,20.4675 L16.1480565,17.667 C16.1480565,17.1585 16.1195322,16.6185 15.9303711,16.1385 C15.4950003,15.009 14.3900591,14.601 13.0959568,14.601 C11.411522,14.601 10.0618724,15.357 9.95978542,17.0565 L11.7162816,17.0565 C11.7598187,16.359 12.2537394,15.9795 13.0959568,15.9795 C14.1303379,15.9795 14.3750463,16.4595 14.3750463,17.1735 L14.3750463,17.6385 L12.1501512,17.796 C10.7134274,17.898 9.59647596,18.723 9.59647596,20.1615 C9.59647596,21.3975 10.5257675,22.5285 12.3258008,22.5285 C13.4022176,22.5285 14.2759619,22.0065 14.6227573,21.3975 C14.6813072,21.9615 15.116678,22.4565 15.9003455,22.4565 C16.3387189,22.4565 16.4978545,22.3845 16.8026141,22.2525 L16.8026141,22.2525 Z M6.63145038,19.3065 C6.63145038,20.352 5.68714604,20.673 4.81340179,20.673 L2.50443504,20.673 L2.50443504,17.8095 L4.87195166,17.8095 C5.86279565,17.8095 6.63145038,18.201 6.63145038,19.3065 L6.63145038,19.3065 Z M6.41526624,14.964 C6.41526624,15.939 5.70065754,16.245 4.85693887,16.245 L2.50443504,16.245 L2.50443504,13.656 L4.81340179,13.656 C5.66012302,13.656 6.41526624,13.977 6.41526624,14.964 L6.41526624,14.964 Z M8.53507187,19.35 C8.53507187,18.39 8.02613836,17.478 7.05330972,17.0265 C7.92255013,16.635 8.31738645,15.6915 8.31738645,14.85 C8.31738645,13.962 7.87901304,13.107 7.12687238,12.612 C6.42727647,12.1635 5.57154757,12.0465 4.74134041,12.0465 L0.645851918,12.0465 L0.645851918,22.3545 L4.74134041,22.3545 C5.73068312,22.3545 6.69000026,22.266 7.48868056,21.6555 C8.23031228,21.0915 8.53507187,20.2665 8.53507187,19.35 L8.53507187,19.35 Z" id="Fill-12"></path>
                    <path d="M66.027143,4.80075 L63.6821455,4.80075 C63.6911532,4.44675 63.7767261,4.19475 63.9613834,3.95475 C64.1505445,3.70425 64.4748207,3.53625 64.8711583,3.53625 C65.2449767,3.53625 65.5182095,3.66225 65.6953604,3.84975 C65.9025368,4.08225 66.016634,4.39275 66.027143,4.80075 L66.027143,4.80075 Z M67.3302529,5.38275 C67.3512708,4.70775 67.2566903,4.09125 66.861854,3.49575 C66.4129716,2.81925 65.6818488,2.49675 64.8816673,2.49675 C64.1415368,2.49675 63.5575394,2.76825 63.1491916,3.18525 C62.6297491,3.71625 62.3715292,4.48725 62.3715292,5.35125 C62.3715292,6.23775 62.6627772,6.99825 63.2017363,7.51875 C63.631102,7.92675 64.1715624,8.18475 64.9116928,8.18475 C65.6007798,8.18475 66.2778565,7.96725 66.7372478,7.42725 C66.9459256,7.17675 67.163611,6.74925 67.1936366,6.42525 L65.9430714,6.42525 C65.8905266,6.62325 65.7989486,6.77175 65.6818488,6.88425 C65.4956903,7.07175 65.2644934,7.14375 64.8906749,7.14375 C64.5363731,7.14375 64.2751506,6.98775 64.0904934,6.81075 C63.8277696,6.56025 63.6821455,6.16575 63.6911532,5.74725 L67.3212453,5.74725 C67.3212453,5.63325 67.3302529,5.38275 67.3302529,5.38275 L67.3302529,5.38275 Z M60.4003501,5.33175 C60.4003501,6.11475 60.1901711,7.08225 59.1678003,7.08225 C58.762455,7.08225 58.4802146,6.89475 58.2910535,6.65775 C58.0208233,6.30225 57.9502632,5.80125 57.9502632,5.33175 C57.9502632,4.86075 58.0208233,4.37175 58.2910535,4.01775 C58.4802146,3.77775 58.762455,3.59025 59.1678003,3.59025 C60.1901711,3.59025 60.4003501,4.55025 60.4003501,5.33175 L60.4003501,5.33175 Z M61.6389051,8.05125 L61.6389051,0.52725 L60.3357951,0.52725 L60.3357951,3.00825 C60.109102,2.72625 59.6076749,2.49675 58.9170867,2.49675 C58.3646161,2.49675 57.927744,2.66475 57.5959614,2.93625 C56.947409,3.46425 56.6276366,4.28775 56.6276366,5.35125 C56.6276366,6.37425 56.9384013,7.18725 57.5854524,7.71825 C57.917235,7.98975 58.3646161,8.17725 58.908079,8.17725 C59.5025854,8.17725 60.109102,7.95825 60.431877,7.45875 L60.5144473,8.05125 L61.6389051,8.05125 Z M53.8923066,7.97775 L53.8923066,6.88575 C53.5395061,6.92625 53.3188182,6.93675 53.0470867,6.93675 C52.6312325,6.93675 52.4435726,6.76125 52.4435726,6.34275 L52.4435726,3.70425 L53.808235,3.70425 L53.808235,2.63175 L52.4435726,2.63175 L52.4435726,0.93525 L51.1434652,1.25625 L51.1434652,2.63175 L50.1526212,2.63175 L50.1526212,3.70425 L51.1434652,3.70425 L51.1434652,6.45675 C51.1434652,7.49925 51.6839256,8.12325 52.7783578,8.12325 C53.1641864,8.12325 53.5289972,8.07075 53.8923066,7.97775 L53.8923066,7.97775 Z M49.7022376,8.05125 L49.7022376,4.43325 C49.7022376,3.30825 49.0266621,2.49675 47.8691762,2.49675 C47.243143,2.49675 46.5960918,2.75625 46.2718156,3.33075 L46.1787363,2.63175 L45.0873066,2.63175 L45.0873066,8.05125 L46.3859128,8.05125 L46.3859128,5.84025 C46.3859128,5.38425 46.3769051,4.82025 46.564565,4.39275 C46.7432171,3.99525 47.0434729,3.70425 47.5013629,3.70425 C48.1919512,3.70425 48.4021302,4.08975 48.4021302,4.72575 L48.4021302,8.05125 L49.7022376,8.05125 Z M42.97801,4.80075 L40.6330125,4.80075 C40.6450228,4.44675 40.7275931,4.19475 40.9152529,3.95475 C41.1029128,3.70425 41.427189,3.53625 41.820524,3.53625 C42.1958437,3.53625 42.4675752,3.66225 42.6447261,3.84975 C42.8534038,4.08225 42.9690023,4.39275 42.97801,4.80075 L42.97801,4.80075 Z M44.2826212,5.38275 C44.3021379,4.70775 44.2090586,4.09125 43.8142223,3.49575 C43.3638386,2.81925 42.6357184,2.49675 41.8340355,2.49675 C41.0924038,2.49675 40.5099077,2.76825 40.1045624,3.18525 C39.5821174,3.71625 39.3208949,4.48725 39.3208949,5.35125 C39.3208949,6.23775 39.6151455,6.99825 40.1556059,7.51875 C40.5804678,7.92675 41.1239307,8.18475 41.8640611,8.18475 C42.5516468,8.18475 43.2287235,7.96725 43.6896161,7.42725 C43.8967926,7.17675 44.114478,6.74925 44.1460049,6.42525 L42.8954396,6.42525 C42.8428949,6.62325 42.7483143,6.77175 42.6357184,6.88425 C42.445056,7.07175 42.2198642,7.14375 41.8445445,7.14375 C41.4872402,7.14375 41.2275189,6.98775 41.0398591,6.81075 C40.7786366,6.56025 40.6330125,6.16575 40.6450228,5.74725 L44.270611,5.74725 C44.270611,5.63325 44.2826212,5.38275 44.2826212,5.38275 L44.2826212,5.38275 Z M38.5702555,8.05125 L38.5702555,4.39275 C38.5702555,3.26775 37.9667414,2.49675 36.8107568,2.49675 C36.0781327,2.49675 35.4956366,2.81925 35.1713604,3.38175 C34.9011302,2.83275 34.3801864,2.49675 33.6205394,2.49675 C32.8999256,2.49675 32.3789818,2.85225 32.0757235,3.35025 L31.9736366,2.63175 L30.8897133,2.63175 L30.8897133,8.05125 L32.1823143,8.05125 L32.1823143,5.09025 C32.1823143,4.41525 32.5140969,3.63225 33.2542274,3.63225 C33.9117875,3.63225 34.0889384,4.01775 34.0889384,4.68375 L34.0889384,8.05125 L35.3785368,8.05125 L35.3785368,5.09025 C35.3785368,4.41525 35.7043143,3.63225 36.4444448,3.63225 C37.0990023,3.63225 37.2791558,4.01775 37.2791558,4.68375 L37.2791558,8.05125 L38.5702555,8.05125 Z M28.4291174,5.89425 C28.4291174,6.69675 27.8556289,7.13625 27.0419358,7.13625 C26.633588,7.13625 26.2687772,6.87375 26.2687772,6.45675 C26.2687772,6.01875 26.6546059,5.77875 27.053946,5.74725 L28.4291174,5.64225 L28.4291174,5.89425 Z M30.1660969,7.98975 L30.1660969,7.03125 C30.1660969,7.03125 30.0865292,7.05225 30.0039588,7.05225 C29.7832708,7.05225 29.6991992,6.95625 29.6991992,6.70725 L29.6991992,4.69725 C29.6991992,4.33125 29.6781813,3.94425 29.5445675,3.60225 C29.2308003,2.78925 28.4396263,2.49675 27.5103348,2.49675 C26.3003041,2.49675 25.3319793,3.03975 25.2614192,4.25925 L26.5209921,4.25925 C26.5525189,3.75825 26.9038182,3.48675 27.5103348,3.48675 C28.2519665,3.48675 28.4291174,3.83025 28.4291174,4.34025 L28.4291174,4.67475 L26.8332581,4.79175 C25.8018795,4.86225 24.9986954,5.45625 24.9986954,6.48825 C24.9986954,7.37475 25.6667645,8.18475 26.9578642,8.18475 C27.7310228,8.18475 28.3555547,7.81275 28.6062683,7.37475 C28.6468028,7.77975 28.9605701,8.13375 29.5220483,8.13375 C29.8358156,8.13375 29.9499128,8.08125 30.1660969,7.98975 L30.1660969,7.98975 Z M24.7569895,7.97775 L24.7569895,6.88575 C24.404189,6.92625 24.1865036,6.93675 23.9147721,6.93675 C23.4989179,6.93675 23.3112581,6.76125 23.3112581,6.34275 L23.3112581,3.70425 L24.6759205,3.70425 L24.6759205,2.63175 L23.3112581,2.63175 L23.3112581,0.93525 L22.0081481,1.25625 L22.0081481,2.63175 L21.0188054,2.63175 L21.0188054,3.70425 L22.0081481,3.70425 L22.0081481,6.45675 C22.0081481,7.49925 22.5486084,8.12325 23.6430407,8.12325 C24.0288693,8.12325 24.3936801,8.07075 24.7569895,7.97775 L24.7569895,7.97775 Z M20.569923,8.05125 L20.569923,4.43325 C20.569923,3.30825 19.8928463,2.49675 18.7368616,2.49675 C18.1108284,2.49675 17.4637772,2.75625 17.139501,3.33075 L17.0464217,2.63175 L15.9519895,2.63175 L15.9519895,8.05125 L17.2550995,8.05125 L17.2550995,5.84025 C17.2550995,5.38425 17.2445905,4.82025 17.4292478,4.39275 C17.6094013,3.99525 17.9126596,3.70425 18.3705496,3.70425 C19.0581353,3.70425 19.266813,4.08975 19.266813,4.72575 L19.266813,8.05125 L20.569923,8.05125 Z M14.7419588,8.05125 L14.7419588,2.63175 L13.4388488,2.63175 L13.4388488,5.49675 C13.4388488,5.93775 13.3577798,6.42525 13.0425113,6.71775 C12.8878795,6.87375 12.6777005,6.98775 12.3759435,6.98775 C11.6883578,6.98775 11.4376442,6.59325 11.4376442,5.95725 L11.4376442,2.63175 L10.1360355,2.63175 L10.1360355,6.24825 C10.1360355,7.40475 10.8551481,8.18475 12.0111327,8.18475 C12.7002197,8.18475 13.305235,7.87425 13.5649563,7.34325 L13.6595368,8.05125 L14.7419588,8.05125 Z M8.99806624,8.80125 L8.99806624,2.63175 L7.68744987,2.63175 L7.68744987,8.55375 C7.68744987,8.91825 7.46976445,9.13575 7.06141662,9.13575 C6.86324783,9.13575 6.81070307,9.11625 6.42487442,9.07275 L6.42487442,10.17675 C6.66357775,10.23825 6.85273887,10.27125 7.0208821,10.29225 C7.18602276,10.31175 7.33314808,10.31175 7.47727084,10.31175 C8.44709693,10.31175 8.99806624,9.72975 8.99806624,8.80125 L8.99806624,8.80125 Z M7.63490512,1.86225 L9.03109437,1.86225 L9.03109437,0.51825 L7.63490512,0.51825 L7.63490512,1.86225 Z M4.79898951,5.42475 L2.69419668,5.42475 L3.74659309,2.31075 L4.79898951,5.42475 Z M7.10195115,8.05125 L4.50774143,0.66375 L3.03798951,0.66375 L0.442278517,8.05125 L1.79643197,8.05125 L2.2753399,6.63375 L5.21784629,6.63375 L5.69675422,8.05125 L7.10195115,8.05125 Z" id="Fill-14"></path>
                </g>
            </g>
        </g>
    </g>
</svg>