<?xml version="1.0" encoding="UTF-8" standalone="no"?>
<svg width="93px" height="48px" viewBox="0 0 93 48" version="1.1" xmlns="http://www.w3.org/2000/svg" xmlns:xlink="http://www.w3.org/1999/xlink">
    <!-- Generator: sketchtool 41.2 (35397) - http://www.bohemiancoding.com/sketch -->
    <title>5923E21E-FF9E-4BAD-8AF0-933AA9F4C20C</title>
    <desc>Created with sketchtool.</desc>
    <defs>
        <polygon id="path-1" points="8.88265385 10.65 8.88265385 0.508928571 0.413796154 0.508928571 0.413796154 10.65 8.88265385 10.65"></polygon>
        <polygon id="path-3" points="11.2458346 0.448214286 0.811834615 0.448214286 0.811834615 10.7548214 11.2458346 10.7548214 11.2458346 0.448214286"></polygon>
        <polygon id="path-5" points="11.4078038 0.448214286 0.975611538 0.448214286 0.975611538 10.7548214 11.4078038 10.7548214 11.4078038 0.448214286"></polygon>
    </defs>
    <g id="COMPONENTS-&amp;-ASSETS" stroke="none" stroke-width="1" fill="none" fill-rule="evenodd" opacity="0.900000036">
        <g transform="translate(-1039.000000, -5496.000000)" id="Page-1">
            <g transform="translate(1039.000000, 5496.000000)">
                <path d="M16.9794731,16.2951786 L21.3739731,16.2951786 C22.9629346,16.2951786 23.7854346,16.53625 24.5699731,17.2183929 C25.2984731,17.8469643 25.6365115,18.5844643 25.6365115,19.5094643 C25.6365115,20.3773214 25.3183577,21.1166071 24.7561654,21.6701786 C24.3837808,22.0201786 24.1596269,22.1505357 23.5612808,22.3344643 C25.2984731,22.8523214 26.1408577,23.88625 26.1408577,25.5666071 C26.1408577,27.3398214 25.0182808,28.9648214 22.7369731,29.1130357 C22.3266269,29.1308929 21.7843192,29.1505357 21.0738962,29.1505357 L16.9794731,29.1505357 L16.9794731,16.2951786 Z M19.55905,18.4933929 L19.55905,21.44875 L21.1118577,21.44875 C21.7282808,21.44875 22.0084731,21.41125 22.2326269,21.2826786 C22.5887423,21.0969643 22.9068962,20.4701786 22.9068962,19.9523214 C22.9068962,19.4166071 22.6068192,18.8808929 22.1585115,18.6594643 C21.9343577,18.5666071 21.6541654,18.4933929 21.0738962,18.4933929 L19.55905,18.4933929 Z M19.5970115,23.5719643 L19.5970115,27.0451786 L21.29805,27.0451786 C21.8403577,27.0451786 22.21455,26.9523214 22.5128192,26.74875 C22.9068962,26.4523214 23.1870885,25.8630357 23.1870885,25.2523214 C23.1870885,24.5148214 22.7948192,23.88625 22.2326269,23.6826786 C21.9144731,23.5898214 21.8222808,23.5719643 21.2239346,23.5719643 L19.5970115,23.5719643 Z" id="Fill-1" fill="#FFFFFF"></path>
                <path d="M27.3004923,20.8201786 C27.9169154,20.4326786 28.1790308,20.3023214 28.8514923,20.0451786 C29.7878769,19.6558929 30.5904923,19.4898214 31.4690308,19.4898214 C33.0778769,19.4898214 34.1805692,20.0808929 34.5547615,21.1344643 C34.6849154,21.5219643 34.7228769,21.8166071 34.7228769,22.8326786 L34.6668385,26.0094643 L34.6668385,26.1755357 C34.6668385,27.1916071 34.8349538,27.5791071 35.5652615,28.1148214 L34.2366077,29.6308929 C33.6581462,29.3898214 33.1339154,28.9648214 32.8898769,28.4844643 C32.5355692,28.8166071 32.4976077,28.8541071 32.3114154,28.9844643 C31.8432231,29.3166071 31.1707615,29.5005357 30.3862231,29.5005357 C28.2549538,29.5005357 27.0944154,28.4291071 27.0944154,26.5451786 C27.0944154,24.3291071 28.6472231,23.2951786 31.6949923,23.2951786 C31.8811846,23.2951786 31.9932615,23.2951786 32.2553769,23.3130357 L32.2553769,22.9255357 C32.2553769,21.87375 32.0493,21.5219643 31.1328,21.5219643 C30.3283769,21.5219643 29.3938,21.9094643 28.3670308,22.5933929 L27.3004923,20.8201786 Z M32.2174154,25.0130357 L32.1053385,25.0130357 C30.3663385,25.0130357 29.7679923,25.3273214 29.7679923,26.4523214 C29.7679923,27.1916071 30.2361846,27.6916071 30.8706846,27.6916071 C31.3388769,27.6916071 31.8070692,27.4505357 32.1794538,27.0451786 L32.2174154,25.0130357 Z" id="Fill-3" fill="#FFFFFF"></path>
                <path d="M36.7608692,20.0628571 L39.0042154,19.4717857 C39.2283692,19.8592857 39.3603308,20.2842857 39.3964846,20.82 C39.7526,20.3396429 40.3509462,19.8414286 40.8173308,19.62 C41.0234077,19.5271429 41.3596385,19.4717857 41.6398308,19.4717857 C42.0140231,19.4717857 42.1821385,19.5092857 42.5762154,19.6753571 L41.8838692,21.8539286 C41.6398308,21.7253571 41.4355615,21.67 41.1553692,21.67 C40.5931769,21.67 40.0888308,21.9289286 39.6206385,22.4646429 L39.6206385,29.1503571 L37.1151769,29.1503571 L37.1151769,22.8325 C37.1151769,21.5592857 36.9669462,20.5985714 36.7608692,20.0628571" id="Fill-5" fill="#FFFFFF"></path>
                <path d="M49.7182269,20.5060714 L48.5034577,22.1310714 C47.9973038,21.6703571 47.4568038,21.3917857 46.9886115,21.3917857 C45.8660346,21.3917857 45.3616885,22.3525 45.3616885,24.5685714 C45.3616885,25.8060714 45.5117269,26.5453571 45.8479577,26.9525 C46.1100731,27.2846429 46.5403038,27.4882143 46.9687269,27.4882143 C47.5489962,27.4882143 48.0732269,27.2471429 48.68965,26.7114286 L48.8396885,26.5828571 L49.9803423,28.0792857 C49.60615,28.4489286 49.4380346,28.5775 49.1018038,28.7810714 C48.4275346,29.1685714 47.67915,29.3721429 46.7644577,29.3721429 C44.1288423,29.3721429 42.5941115,27.5614286 42.5941115,24.4953571 C42.5941115,22.3167857 43.4364962,20.8757143 44.5572654,20.1185714 C45.1935731,19.6935714 46.12815,19.4167857 46.9325731,19.4167857 C47.5688808,19.4167857 48.2413423,19.5828571 48.78365,19.8417857 C49.1379577,20.0257143 49.3060731,20.1542857 49.7182269,20.5060714" id="Fill-7" fill="#FFFFFF"></path>
                <path d="M57.6449577,26.6380357 L58.6174962,28.1148214 C57.5148038,29.0023214 56.3542654,29.4273214 55.0093423,29.4273214 C52.2598423,29.4273214 50.4846885,27.5058929 50.4846885,24.5326786 C50.4846885,22.8326786 50.8389962,21.7058929 51.6813808,20.7826786 C52.4659192,19.9148214 53.4203808,19.5094643 54.6911885,19.5094643 C55.7938808,19.5094643 56.8405346,19.8791071 57.4587654,20.5058929 C58.3373038,21.3916071 58.7295731,22.6666071 58.7295731,24.6433929 L58.7295731,25.2166071 L53.1944192,25.2166071 L53.1944192,25.2898214 C53.1944192,26.74875 53.9247269,27.5791071 55.2154192,27.5791071 C56.0740731,27.5791071 56.8784962,27.2666071 57.6449577,26.6380357 L57.6449577,26.6380357 Z M53.2323808,23.4058929 L56.1301115,23.4058929 L56.1301115,23.2951786 C56.1301115,22.5933929 56.0559962,22.22375 55.8318423,21.87375 C55.5878038,21.5041071 55.2334962,21.3183929 54.72915,21.3183929 C53.7746885,21.3183929 53.2323808,22.0576786 53.2323808,23.3683929 L53.2323808,23.4058929 Z" id="Fill-9" fill="#FFFFFF"></path>
                <path d="M62.8803962,15.4825 C62.9743962,16.0003571 63.01055,16.6092857 63.01055,17.9396429 L63.01055,25.3075 C63.01055,26.9342857 63.0304346,27.1557143 63.1804731,27.4128571 C63.2726654,27.5807143 63.4787423,27.6717857 63.6848192,27.6717857 C63.7788192,27.6717857 63.8348577,27.6717857 63.9650115,27.6360714 L64.3952423,29.1128571 C63.9650115,29.2789286 63.4407808,29.3717857 62.8984731,29.3717857 C61.8337423,29.3717857 60.9732808,28.8735714 60.6750115,28.0789286 C60.4870115,27.5985714 60.4508577,27.3021429 60.4508577,25.9539286 L60.4508577,18.9003571 C60.4508577,17.6628571 60.4128962,16.9039286 60.3188962,16.0557143 L62.8803962,15.4825 Z" id="Fill-11" fill="#FFFFFF"></path>
                <path d="M69.1433269,19.5089286 C70.5081346,19.5089286 71.5746731,19.9696429 72.3971731,20.9303571 C73.1636346,21.8178571 73.4998654,22.8517857 73.4998654,24.3857143 C73.4998654,26.0107143 73.1256731,27.1178571 72.3031731,28.0410714 C71.5746731,28.8535714 70.6202115,29.3535714 69.1433269,29.3535714 C66.5438654,29.3535714 64.8428269,27.4321429 64.8428269,24.4589286 C64.8428269,21.4857143 66.56375,19.5089286 69.1433269,19.5089286 M69.1812885,21.3375 C68.5829423,21.3375 68.0966731,21.7071429 67.8905962,22.2982143 C67.7224808,22.7964286 67.6284808,23.4607143 67.6284808,24.4035714 C67.6284808,25.4928571 67.7405577,26.3053571 67.9466346,26.7857143 C68.1707885,27.3035714 68.7311731,27.5607143 69.21925,27.5607143 C70.3020577,27.5607143 70.77025,26.6017857 70.77025,24.3660714 C70.77025,23.0910714 70.6021346,22.2607143 70.2659038,21.8357143 C70.0218654,21.5214286 69.6295962,21.3375 69.1812885,21.3375" id="Fill-13" fill="#FFFFFF"></path>
                <path d="M74.9019115,20.0814286 L77.1271808,19.4528571 C77.3513346,19.8421429 77.4814885,20.2475 77.4814885,20.635 C78.0617577,20.2296429 78.1738346,20.1546429 78.5859885,19.9332143 C79.0903346,19.6760714 79.7447192,19.5278571 80.3051038,19.5278571 C81.3698346,19.5278571 82.3062192,20.0814286 82.6044885,20.8939286 C82.73645,21.2457143 82.7924885,21.6510714 82.7924885,22.2421429 L82.7924885,29.1492857 L80.3231808,29.1492857 L80.3231808,22.9992857 C80.3231808,21.9278571 80.1369885,21.6135714 79.4826038,21.6135714 C78.9782577,21.6135714 78.3238731,21.9475 77.7436038,22.4635714 L77.7436038,29.1492857 L75.2381423,29.1492857 L75.2381423,22.2975 C75.2381423,21.485 75.1260654,20.71 74.9019115,20.0814286" id="Fill-15" fill="#FFFFFF"></path>
                <g id="Group-19" transform="translate(84.153846, 18.980893)">
                    <mask id="mask-2" fill="white">
                        <use xlink:href="#path-1"></use>
                    </mask>
                    <g id="Clip-18"></g>
                    <path d="M0.619873077,1.83928571 C1.23629615,1.45178571 1.49841154,1.32142857 2.17087308,1.06428571 C3.10725769,0.675 3.90987308,0.508928571 4.78841154,0.508928571 C6.39725769,0.508928571 7.49995,1.1 7.87414231,2.15357143 C8.00429615,2.54107143 8.04225769,2.83571429 8.04225769,3.85178571 L7.98621923,7.02857143 L7.98621923,7.19464286 C7.98621923,8.21071429 8.15433462,8.59821429 8.88283462,9.13392857 L7.55598846,10.65 C6.97571923,10.4089286 6.45329615,9.98392857 6.20925769,9.50357143 C5.85495,9.83571429 5.81698846,9.87321429 5.63079615,10.0035714 C5.16260385,10.3357143 4.49014231,10.5196429 3.70379615,10.5196429 C1.57252692,10.5196429 0.413796154,9.44821429 0.413796154,7.56428571 C0.413796154,5.34821429 1.96660385,4.31428571 5.01256538,4.31428571 C5.20056538,4.31428571 5.31264231,4.31428571 5.57475769,4.33214286 L5.57475769,3.94464286 C5.57475769,2.89285714 5.36868077,2.54107143 4.45218077,2.54107143 C3.64775769,2.54107143 2.71318077,2.92857143 1.68460385,3.6125 L0.619873077,1.83928571 Z M5.53679615,6.03214286 L5.42471923,6.03214286 C3.68571923,6.03214286 3.08737308,6.34642857 3.08737308,7.47142857 C3.08737308,8.21071429 3.55556538,8.71071429 4.19006538,8.71071429 C4.65825769,8.71071429 5.12464231,8.46964286 5.49883462,8.06428571 L5.53679615,6.03214286 Z" id="Fill-17" fill="#FFFFFF" mask="url(#mask-2)"></path>
                </g>
                <polygon id="Fill-20" fill="#FFFFFF" points="16.1193731 34.495 24.6082962 34.495 24.5142962 35.77 21.0362962 35.77 21.0362962 47.1646429 19.5594115 47.1646429 19.5594115 35.77 16.1193731 35.77"></polygon>
                <path d="M25.2623192,38.0416071 L26.7012423,37.7648214 L26.7012423,44.3755357 C26.7012423,45.2808929 26.8133192,45.6130357 27.24355,45.8898214 C27.5436269,46.0933929 27.9919346,46.2416071 28.4040885,46.2416071 C29.3205885,46.2416071 30.2732423,45.5773214 30.7775885,44.5791071 L30.7775885,38.0594643 L32.2183192,37.8201786 L32.2183192,44.3398214 C32.2183192,45.3916071 32.2544731,45.7058929 32.4424731,46.0576786 C32.5346654,46.2594643 32.6105885,46.3523214 32.8528192,46.57375 L31.9182423,47.5523214 C31.3018192,47.0541071 31.0397038,46.6844643 30.9077423,46.0755357 C30.1991269,47.0166071 29.2265885,47.4791071 27.9539731,47.4791071 C26.7771654,47.4791071 25.8606654,46.99875 25.5063577,46.1666071 C25.3364346,45.8166071 25.2623192,45.33625 25.2623192,44.8005357 L25.2623192,38.0416071 Z" id="Fill-22" fill="#FFFFFF"></path>
                <path d="M34.98445,38.1153571 L36.4432577,37.7278571 C36.6674115,38.2082143 36.7596038,38.485 36.7596038,39.0939286 L36.7596038,39.2242857 C37.4338731,38.2814286 38.4244885,37.6903571 39.37895,37.6903571 C39.6211808,37.6903571 39.8832962,37.7832143 39.8832962,37.7832143 L39.28495,39.3528571 C39.09695,39.2975 39.0409115,39.2796429 38.8727962,39.2796429 C38.3124115,39.2796429 37.7520269,39.5189286 37.3217962,39.9439286 C36.8915654,40.3689286 36.7794885,40.6457143 36.7794885,41.4028571 L36.7794885,47.1653571 L35.3206808,47.1653571 L35.3206808,40.1475 C35.3206808,39.0939286 35.2465654,38.7064286 34.98445,38.1153571" id="Fill-24" fill="#FFFFFF"></path>
                <path d="M42.0142038,33.99625 C42.6505115,33.99625 43.1548577,34.4944643 43.1548577,35.1230357 C43.1548577,35.7516071 42.6505115,36.2498214 42.0142038,36.2498214 C41.3778962,36.2498214 40.87355,35.7516071 40.87355,35.1408929 C40.87355,34.5141071 41.3778962,33.99625 42.0142038,33.99625 L42.0142038,33.99625 Z M41.2278577,38.0051786 L42.7806654,37.7641071 L42.7806654,47.1658929 L41.2278577,47.1658929 L41.2278577,38.0051786 Z" id="Fill-26" fill="#FFFFFF"></path>
                <path d="M51.3999231,38.3371429 L50.8576154,39.4085714 C50.0351154,39.0210714 49.3427692,38.7425 48.5202692,38.7425 C47.4555385,38.7425 46.7631923,39.3532143 46.7631923,40.2567857 C46.7631923,40.5907143 46.8571923,40.8675 47.0253077,41.0692857 C47.2295769,41.3282143 47.5477308,41.4764286 48.1099231,41.5871429 L49.3427692,41.8460714 C51.0257308,42.2157143 51.8301538,43.0460714 51.8301538,44.4139286 C51.8301538,46.205 50.4093077,47.4246429 48.3141923,47.4246429 C47.1373846,47.4246429 45.8466923,47.0728571 44.8940385,46.5014286 L45.4544231,45.43 C46.4070769,46.0014286 47.3796154,46.2978571 48.4081923,46.2978571 C49.5488462,46.2978571 50.2972308,45.6871429 50.2972308,44.7085714 C50.2972308,43.8782143 49.8290385,43.4157143 48.7643077,43.1942857 L47.6037692,42.955 C46.7631923,42.7692857 46.2769231,42.5103571 45.8466923,42.0317857 C45.4544231,41.5871429 45.2483462,41.0335714 45.2483462,40.4246429 C45.2483462,38.7621429 46.6131538,37.5978571 48.5582308,37.5978571 C49.5307692,37.5978571 50.6153846,37.8942857 51.3999231,38.3371429" id="Fill-28" fill="#FFFFFF"></path>
                <path d="M53.9236423,38.0783929 L55.3444885,37.74625 C55.5324885,38.1158929 55.6807192,38.6516071 55.6807192,39.0391071 L55.6807192,39.1123214 C56.11095,38.6694643 56.29895,38.5391071 56.8213731,38.2266071 C57.4197192,37.8748214 57.8879115,37.7283929 58.3922577,37.7283929 C59.1207577,37.7283929 59.8311808,38.09625 60.2433346,38.6516071 C60.3734885,38.8355357 60.4494115,38.94625 60.5614885,39.2605357 C61.4581038,38.3176786 62.5987577,37.7283929 63.5532192,37.7283929 C64.9361038,37.7283929 65.8887577,38.7623214 65.8887577,40.22125 L65.8887577,47.1658929 L64.3937962,47.1658929 L64.3937962,40.3676786 C64.3937962,39.4819643 63.98345,39.0194643 63.1971038,39.0194643 C62.7487962,39.0194643 62.2625269,39.2051786 61.8322962,39.5194643 C61.5521038,39.72125 61.23395,39.9801786 60.8977192,40.2944643 L60.7296038,40.4426786 L60.7296038,47.1658929 L59.2527192,47.1658929 L59.2527192,40.6266071 C59.2527192,39.8319643 59.2346423,39.7033929 58.9906038,39.4444643 C58.76645,39.1873214 58.4663731,39.0748214 58.0361423,39.0748214 C57.3257192,39.0748214 56.6351808,39.4266071 55.6626423,40.2944643 L55.6626423,47.1658929 L54.2598731,47.1658929 L54.2598731,40.3141071 C54.2598731,39.0391071 54.2237192,38.8355357 53.9236423,38.0783929" id="Fill-30" fill="#FFFFFF"></path>
                <path d="M74.9942846,45.2994643 L75.5546692,46.2226786 C74.7321692,46.9619643 73.6114,47.3691071 72.4147077,47.3691071 C69.8333231,47.3691071 68.2823231,45.5208929 68.2823231,42.4744643 C68.2823231,40.9226786 68.6004769,39.9066071 69.4049,39.00125 C70.1514769,38.1333929 71.0679769,37.7083929 72.1905538,37.7083929 C73.1992462,37.7083929 74.0976692,38.0601786 74.7140923,38.7244643 C75.5185154,39.5369643 75.7426692,40.4048214 75.7806308,42.6030357 L75.7806308,42.8066071 L69.9652846,42.8066071 L69.9652846,43.0280357 C69.9652846,43.8958929 70.0773615,44.5619643 70.3955154,45.0423214 C70.9179385,45.8351786 71.7784,46.1673214 72.7129769,46.1673214 C73.6114,46.1673214 74.3399,45.8905357 74.9942846,45.2994643 M69.9652846,41.7173214 L74.2278231,41.7173214 C74.2097462,40.7191071 74.0777846,40.1101786 73.7975923,39.6655357 C73.4794385,39.1673214 72.8250538,38.8530357 72.1146308,38.8530357 C70.7877846,38.8530357 70.0394,39.81375 69.9652846,41.7173214" id="Fill-32" fill="#FFFFFF"></path>
                <polygon id="Fill-34" fill="#FFFFFF" points="37.7545577 5.92982143 32.5375577 11.0816071 37.7545577 16.2369643 42.9715577 11.0816071"></polygon>
                <g id="Group-38" transform="translate(21.692308, 0.338036)">
                    <mask id="mask-4" fill="white">
                        <use xlink:href="#path-3"></use>
                    </mask>
                    <g id="Clip-37"></g>
                    <polygon id="Fill-36" fill="#FFFFFF" mask="url(#mask-4)" points="6.02883462 0.447678571 0.811834615 5.60125 6.02883462 10.7548214 11.2458346 5.60125"></polygon>
                </g>
                <g id="Group-41" transform="translate(9.038462, 0.338036)">
                    <mask id="mask-6" fill="white">
                        <use xlink:href="#path-5"></use>
                    </mask>
                    <g id="Clip-40"></g>
                    <polygon id="Fill-39" fill="#FFFFFF" mask="url(#mask-6)" points="6.19080385 0.447678571 0.975611538 5.60125 6.19080385 10.7548214 11.4078038 5.60125"></polygon>
                </g>
                <polygon id="Fill-42" fill="#FFFFFF" points="5.217 5.96821429 0 11.1217857 5.217 16.2753571 10.4321923 11.1217857"></polygon>
            </g>
        </g>
    </g>
</svg>